<svg width="61" height="61" viewBox="0 0 61 61" fill="none" xmlns="http://www.w3.org/2000/svg">
<path d="M39.396 45.1145C38.8905 45.1144 38.4057 44.9135 38.0482 44.556C37.6908 44.1986 37.4899 43.7138 37.4897 43.2082V38.5171C37.4897 38.0115 37.6906 37.5267 38.0481 37.1692C38.4056 36.8117 38.8904 36.6108 39.396 36.6108C39.9016 36.6108 40.3864 36.8117 40.7439 37.1692C41.1014 37.5267 41.3022 38.0115 41.3022 38.5171V43.2082C41.3021 43.7138 41.1012 44.1986 40.7438 44.556C40.3863 44.9135 39.9015 45.1144 39.396 45.1145Z" fill="#0071BD"/>
<path d="M39.396 33.3843C38.8905 33.3842 38.4057 33.1833 38.0482 32.8258C37.6908 32.4684 37.4899 31.9836 37.4897 31.478V17.7917C37.4897 17.2862 37.6906 16.8013 38.0481 16.4438C38.4056 16.0863 38.8904 15.8855 39.396 15.8855C39.9016 15.8855 40.3864 16.0863 40.7439 16.4438C41.1014 16.8013 41.3022 17.2862 41.3022 17.7917V31.478C41.3021 31.9836 41.1012 32.4684 40.7438 32.8258C40.3863 33.1833 39.9015 33.3842 39.396 33.3843Z" fill="#0071BD"/>
<path d="M21.6045 45.1145C21.099 45.1144 20.6142 44.9135 20.2567 44.556C19.8993 44.1986 19.6984 43.7138 19.6982 43.2082V38.5171C19.6982 38.0115 19.8991 37.5267 20.2566 37.1692C20.6141 36.8117 21.0989 36.6108 21.6045 36.6108C22.1101 36.6108 22.5949 36.8117 22.9524 37.1692C23.3099 37.5267 23.5107 38.0115 23.5107 38.5171V43.2082C23.5106 43.7138 23.3097 44.1986 22.9523 44.556C22.5948 44.9135 22.11 45.1144 21.6045 45.1145Z" fill="#0071BD"/>
<path d="M21.6045 33.3843C21.099 33.3842 20.6142 33.1833 20.2567 32.8258C19.8993 32.4684 19.6984 31.9836 19.6982 31.478V17.7917C19.6982 17.2862 19.8991 16.8013 20.2566 16.4438C20.6141 16.0863 21.0989 15.8855 21.6045 15.8855C22.1101 15.8855 22.5949 16.0863 22.9524 16.4438C23.3099 16.8013 23.5107 17.2862 23.5107 17.7917V31.478C23.5106 31.9836 23.3097 32.4684 22.9523 32.8258C22.5948 33.1833 22.11 33.3842 21.6045 33.3843Z" fill="#0071BD"/>
<path d="M48.292 45.1147C47.7865 45.1145 47.3017 44.9137 46.9442 44.5562C46.5868 44.1987 46.3859 43.7139 46.3857 43.2084V17.7917C46.3857 17.2862 46.5866 16.8013 46.9441 16.4438C47.3016 16.0863 47.7864 15.8855 48.292 15.8855C48.7976 15.8855 49.2824 16.0863 49.6399 16.4438C49.9974 16.8013 50.1982 17.2862 50.1982 17.7917V43.2084C50.1981 43.7139 49.9972 44.1987 49.6398 44.5562C49.2823 44.9137 48.7975 45.1145 48.292 45.1147Z" fill="#232323"/>
<path d="M12.7085 45.1147C12.203 45.1145 11.7182 44.9137 11.3607 44.5562C11.0033 44.1987 10.8024 43.7139 10.8022 43.2084V17.7917C10.8022 17.2862 11.0031 16.8013 11.3606 16.4438C11.7181 16.0863 12.2029 15.8855 12.7085 15.8855C13.2141 15.8855 13.6989 16.0863 14.0564 16.4438C14.4139 16.8013 14.6147 17.2862 14.6147 17.7917V43.2084C14.6146 43.7139 14.4137 44.1987 14.0563 44.5562C13.6988 44.9137 13.214 45.1145 12.7085 45.1147Z" fill="#232323"/>
<path d="M30.5 45.1147C29.9945 45.1145 29.5097 44.9137 29.1522 44.5562C28.7948 44.1987 28.5939 43.7139 28.5938 43.2084V17.7917C28.5938 17.2862 28.7946 16.8013 29.1521 16.4438C29.5096 16.0863 29.9944 15.8855 30.5 15.8855C31.0056 15.8855 31.4904 16.0863 31.8479 16.4438C32.2054 16.8013 32.4062 17.2862 32.4062 17.7917V43.2084C32.4061 43.7139 32.2052 44.1987 31.8478 44.5562C31.4903 44.9137 31.0055 45.1145 30.5 45.1147Z" fill="#232323"/>
<path d="M5.0835 17.1562C4.57797 17.1561 4.09318 16.9552 3.73572 16.5978C3.37826 16.2403 3.17738 15.7555 3.17725 15.25V10.1667C3.17868 8.98745 3.64776 7.85693 4.48159 7.0231C5.31543 6.18926 6.44594 5.72018 7.62516 5.71875H12.7085C13.2141 5.71875 13.6989 5.91959 14.0564 6.27708C14.4139 6.63457 14.6147 7.11943 14.6147 7.625C14.6147 8.13057 14.4139 8.61543 14.0564 8.97292C13.6989 9.33041 13.2141 9.53125 12.7085 9.53125H7.62516C7.45674 9.53157 7.29531 9.59862 7.17621 9.71772C7.05712 9.83681 6.99007 9.99824 6.98975 10.1667V15.25C6.98961 15.7555 6.78873 16.2403 6.43127 16.5978C6.07381 16.9552 5.58902 17.1561 5.0835 17.1562Z" fill="#232323"/>
<path d="M55.917 17.1562C55.4115 17.1561 54.9267 16.9552 54.5692 16.5978C54.2118 16.2403 54.0109 15.7555 54.0107 15.25V10.1667C54.0104 9.99824 53.9434 9.83681 53.8243 9.71772C53.7052 9.59862 53.5437 9.53157 53.3753 9.53125H48.292C47.7864 9.53125 47.3016 9.33041 46.9441 8.97292C46.5866 8.61543 46.3857 8.13057 46.3857 7.625C46.3857 7.11943 46.5866 6.63457 46.9441 6.27708C47.3016 5.91959 47.7864 5.71875 48.292 5.71875H53.3753C54.5545 5.72018 55.6851 6.18926 56.5189 7.0231C57.3527 7.85693 57.8218 8.98745 57.8232 10.1667V15.25C57.8231 15.7555 57.6222 16.2403 57.2648 16.5978C56.9073 16.9552 56.4225 17.1561 55.917 17.1562Z" fill="#232323"/>
<path d="M53.3753 55.2812H48.292C47.7864 55.2812 47.3016 55.0804 46.9441 54.7229C46.5866 54.3654 46.3857 53.8806 46.3857 53.375C46.3857 52.8694 46.5866 52.3846 46.9441 52.0271C47.3016 51.6696 47.7864 51.4688 48.292 51.4688H53.3753C53.5437 51.4684 53.7052 51.4014 53.8243 51.2823C53.9434 51.1632 54.0104 51.0018 54.0107 50.8333V45.75C54.0107 45.2444 54.2116 44.7596 54.5691 44.4021C54.9266 44.0446 55.4114 43.8438 55.917 43.8438C56.4226 43.8438 56.9074 44.0446 57.2649 44.4021C57.6224 44.7596 57.8232 45.2444 57.8232 45.75V50.8333C57.8218 52.0126 57.3527 53.1431 56.5189 53.9769C55.6851 54.8107 54.5545 55.2798 53.3753 55.2812Z" fill="#232323"/>
<path d="M12.7085 55.2812H7.62516C6.44594 55.2798 5.31543 54.8107 4.48159 53.9769C3.64776 53.1431 3.17868 52.0126 3.17725 50.8333V45.75C3.17725 45.2444 3.37808 44.7596 3.73557 44.4021C4.09307 44.0446 4.57793 43.8438 5.0835 43.8438C5.58907 43.8438 6.07393 44.0446 6.43142 44.4021C6.78891 44.7596 6.98975 45.2444 6.98975 45.75V50.8333C6.99007 51.0018 7.05712 51.1632 7.17621 51.2823C7.29531 51.4014 7.45674 51.4684 7.62516 51.4688H12.7085C13.2141 51.4688 13.6989 51.6696 14.0564 52.0271C14.4139 52.3846 14.6147 52.8694 14.6147 53.375C14.6147 53.8806 14.4139 54.3654 14.0564 54.7229C13.6989 55.0804 13.2141 55.2812 12.7085 55.2812Z" fill="#232323"/>
</svg>
