<svg width="24" height="24" viewBox="0 0 24 24" fill="none" xmlns="http://www.w3.org/2000/svg">
<path d="M11.5349 17.4602C11.5349 20.2427 13.7924 22.5002 16.5749 22.5002C19.3499 22.5002 21.6074 20.2427 21.6074 17.4602C21.6074 14.6852 19.3499 12.4277 16.5749 12.4277C13.7924 12.4277 11.5349 14.6852 11.5349 17.4602ZM18.6074 15.8927C18.8999 16.1852 18.8924 16.6577 18.5924 16.9502L16.4324 19.0502C16.2974 19.1852 16.1099 19.2602 15.9149 19.2602H15.8324C15.6074 19.2302 15.4049 19.1102 15.2849 18.9227L14.4449 17.6477C14.2199 17.2952 14.3174 16.8302 14.6624 16.6052C15.0074 16.3802 15.4724 16.4777 15.6974 16.8227L16.0424 17.3402L17.5499 15.8777C17.8424 15.5852 18.3224 15.5927 18.6074 15.8927Z" fill="#0071BD"/>
<path d="M2.39258 6.67497V7.43248H19.3051V6.67497C19.3051 4.79997 17.7826 3.2775 15.9151 3.2775H15.0191V2.25C15.0191 1.83582 14.6837 1.5 14.2691 1.5C13.8546 1.5 13.5191 1.83582 13.5191 2.25V3.2775H8.17757V2.25C8.17757 1.83582 7.84212 1.5 7.42757 1.5C7.01302 1.5 6.67757 1.83582 6.67757 2.25V3.2775H5.78259C3.91505 3.2775 2.39258 4.79997 2.39258 6.67497Z" fill="#0071BD"/>
<path d="M2.39258 16.8001C2.39258 18.6751 3.91505 20.1976 5.78259 20.1976H10.6426C10.2526 19.3651 10.0351 18.4351 10.0351 17.4601C10.0351 13.8601 12.9676 10.9276 16.5751 10.9276C17.5501 10.9276 18.4726 11.1451 19.3051 11.5276V8.93262H2.39258V16.8001ZM10.8526 11.4826H10.8601C11.2801 11.4826 11.6101 11.8201 11.6101 12.2326C11.6101 12.6451 11.2801 12.9826 10.8601 12.9826C10.4476 12.9826 10.1101 12.6451 10.1101 12.2326C10.1101 11.8201 10.4401 11.4826 10.8526 11.4826ZM6.97507 11.4826H6.98257C7.39507 11.4826 7.73257 11.8201 7.73257 12.2326C7.73257 12.6451 7.39507 12.9826 6.98257 12.9826C6.57008 12.9826 6.23257 12.6451 6.23257 12.2326C6.23257 11.8201 6.56258 11.4826 6.97507 11.4826ZM6.97507 14.6401H6.98257C7.39507 14.6401 7.73257 14.9776 7.73257 15.3901C7.73257 15.8101 7.39507 16.1401 6.98257 16.1401C6.57008 16.1401 6.23257 15.8101 6.23257 15.3901C6.23257 14.9776 6.56258 14.6401 6.97507 14.6401Z" fill="#0071BD"/>
</svg>
