<svg width="24" height="24" viewBox="0 0 24 24" fill="none" xmlns="http://www.w3.org/2000/svg">
<path fill-rule="evenodd" clip-rule="evenodd" d="M6 0C6.66274 0 7.2 0.537264 7.2 1.2V2.4H16.8V1.2C16.8 0.537264 17.3372 0 18 0C18.6628 0 19.2 0.537264 19.2 1.2V2.4H20.4C22.3883 2.4 24 4.01178 24 6V14.4C24 15.0628 23.4628 15.6 22.8 15.6C22.1372 15.6 21.6 15.0628 21.6 14.4V9.6H2.4V20.4C2.4 21.0628 2.93726 21.6 3.6 21.6H9.6C10.2628 21.6 10.8 22.1372 10.8 22.8C10.8 23.4628 10.2628 24 9.6 24H3.6C1.61178 24 0 22.3883 0 20.4V6C0 4.01178 1.61178 2.4 3.6 2.4H4.8V1.2C4.8 0.537264 5.33726 0 6 0ZM3.6 4.8C2.93726 4.8 2.4 5.33726 2.4 6V7.2H21.6V6C21.6 5.33726 21.0628 4.8 20.4 4.8H3.6Z" fill="#0071BD"/>
<path d="M19.5514 18.8483C19.0828 18.3797 19.0828 17.6199 19.5514 17.1513C20.02 16.6827 20.7798 16.6827 21.2484 17.1513L23.6484 19.5513C24.117 20.0199 24.117 20.7797 23.6484 21.2483L21.2484 23.6483C20.7798 24.1169 20.02 24.1169 19.5514 23.6483C19.0828 23.1797 19.0828 22.4199 19.5514 21.9513L21.1029 20.3998L19.5514 18.8483Z" fill="#0071BD"/>
<path d="M13.5514 17.1513C13.0828 17.6199 13.0828 18.3797 13.5514 18.8483L15.1029 20.3998L13.5514 21.9513C13.0828 22.4199 13.0828 23.1797 13.5514 23.6483C14.02 24.1169 14.7798 24.1169 15.2484 23.6483L17.6484 21.2483C18.117 20.7797 18.117 20.0199 17.6484 19.5513L15.2484 17.1513C14.7798 16.6827 14.02 16.6827 13.5514 17.1513Z" fill="#0071BD"/>
</svg>
