<svg width="24" height="24" viewBox="0 0 24 24" fill="none" xmlns="http://www.w3.org/2000/svg">
<g clip-path="url(#clip0_291_2792)">
<mask id="mask0_291_2792" style="mask-type:luminance" maskUnits="userSpaceOnUse" x="0" y="0" width="24" height="24">
<path d="M24 0H0V24H24V0Z" fill="white"/>
<path d="M5.85937 8.90625C5.34159 8.90625 4.92188 9.32597 4.92188 9.84375C4.92188 10.3615 5.34159 10.7812 5.85937 10.7812C6.37716 10.7812 6.79687 10.3615 6.79687 9.84375C6.79687 9.32597 6.37716 8.90625 5.85937 8.90625Z" fill="white"/>
<path d="M9.9375 8.90625C9.41972 8.90625 9 9.32597 9 9.84375C9 10.3615 9.41972 10.7812 9.9375 10.7812C10.4553 10.7812 10.875 10.3615 10.875 9.84375C10.875 9.32597 10.4553 8.90625 9.9375 8.90625Z" fill="white"/>
<path d="M14.0156 8.90625C13.4978 8.90625 13.0781 9.32597 13.0781 9.84375C13.0781 10.3615 13.4978 10.7812 14.0156 10.7812C14.5334 10.7812 14.9531 10.3615 14.9531 9.84375C14.9531 9.32597 14.5334 8.90625 14.0156 8.90625Z" fill="white"/>
<path d="M18.0937 8.90625C17.576 8.90625 17.1562 9.32597 17.1562 9.84375C17.1562 10.3615 17.576 10.7812 18.0937 10.7812C18.6115 10.7812 19.0312 10.3615 19.0312 9.84375C19.0312 9.32597 18.6115 8.90625 18.0937 8.90625Z" fill="white"/>
<path d="M6.79687 13.9219C6.79687 13.4041 6.37716 12.9844 5.85937 12.9844C5.34159 12.9844 4.92188 13.4041 4.92188 13.9219C4.92188 14.4397 5.34159 14.8594 5.85937 14.8594C6.37716 14.8594 6.79687 14.4397 6.79687 13.9219Z" fill="white"/>
<path d="M6.79687 18C6.79687 17.4822 6.37716 17.0625 5.85937 17.0625C5.34159 17.0625 4.92188 17.4822 4.92188 18C4.92188 18.5178 5.34159 18.9375 5.85937 18.9375C6.37716 18.9375 6.79687 18.5178 6.79687 18Z" fill="white"/>
<path d="M10.875 13.9219C10.875 13.4041 10.4553 12.9844 9.9375 12.9844C9.41972 12.9844 9 13.4041 9 13.9219C9 14.4397 9.41972 14.8594 9.9375 14.8594C10.4553 14.8594 10.875 14.4397 10.875 13.9219Z" fill="white"/>
<path d="M10.875 18C10.875 17.4822 10.4553 17.0625 9.9375 17.0625C9.41972 17.0625 9 17.4822 9 18C9 18.5178 9.41972 18.9375 9.9375 18.9375C10.4553 18.9375 10.875 18.5178 10.875 18Z" fill="white"/>
<path d="M9.9375 8.90625C9.41972 8.90625 9 9.32597 9 9.84375C9 10.3615 9.41972 10.7812 9.9375 10.7812C10.4553 10.7812 10.875 10.3615 10.875 9.84375C10.875 9.32597 10.4553 8.90625 9.9375 8.90625Z" fill="white"/>
<path d="M10.875 13.9219C10.875 13.4041 10.4553 12.9844 9.9375 12.9844C9.41972 12.9844 9 13.4041 9 13.9219C9 14.4397 9.41972 14.8594 9.9375 14.8594C10.4553 14.8594 10.875 14.4397 10.875 13.9219Z" fill="white"/>
<path d="M10.875 18C10.875 17.4822 10.4553 17.0625 9.9375 17.0625C9.41972 17.0625 9 17.4822 9 18C9 18.5178 9.41972 18.9375 9.9375 18.9375C10.4553 18.9375 10.875 18.5178 10.875 18Z" fill="white"/>
<path d="M14.9531 13.9219C14.9531 13.4041 14.5334 12.9844 14.0156 12.9844C13.4978 12.9844 13.0781 13.4041 13.0781 13.9219C13.0781 14.4397 13.4978 14.8594 14.0156 14.8594C14.5334 14.8594 14.9531 14.4397 14.9531 13.9219Z" fill="white"/>
<path d="M19.0312 13.9219C19.0312 13.4041 18.6115 12.9844 18.0937 12.9844C17.576 12.9844 17.1562 13.4041 17.1562 13.9219C17.1562 14.4397 17.576 14.8594 18.0937 14.8594C18.6115 14.8594 19.0312 14.4397 19.0312 13.9219Z" fill="white"/>
</mask>
<g mask="url(#mask0_291_2792)">
<mask id="mask1_291_2792" style="mask-type:luminance" maskUnits="userSpaceOnUse" x="0" y="0" width="24" height="24">
<path d="M0 1.90735e-06H24V24H0V1.90735e-06Z" fill="white"/>
</mask>
<g mask="url(#mask1_291_2792)">
<path d="M11.1118 21.9998H3.61494C2.13623 21.9998 0.9375 20.801 0.9375 19.3223V5.39965C0.9375 3.92094 2.13623 2.72221 3.61494 2.72221H19.3226C20.8013 2.72221 22 3.92094 22 5.39965V11.7362" stroke="#0071BD" stroke-width="2.3" stroke-miterlimit="10" stroke-linecap="round" stroke-linejoin="round"/>
<path d="M5.62301 8.52358C5.13009 8.52358 4.73053 8.92314 4.73053 9.41605C4.73053 9.90897 5.13009 10.3085 5.62301 10.3085C6.11592 10.3085 6.51549 9.90897 6.51549 9.41605C6.51549 8.92314 6.11592 8.52358 5.62301 8.52358Z" fill="#0071BD"/>
<path d="M9.50527 8.52358C9.01236 8.52358 8.61279 8.92314 8.61279 9.41605C8.61279 9.90897 9.01236 10.3085 9.50527 10.3085C9.99819 10.3085 10.3978 9.90897 10.3978 9.41605C10.3978 8.92314 9.99819 8.52358 9.50527 8.52358Z" fill="#0071BD"/>
<path d="M13.3876 8.52358C12.8947 8.52358 12.4951 8.92314 12.4951 9.41605C12.4951 9.90897 12.8947 10.3085 13.3876 10.3085C13.8805 10.3085 14.2801 9.90897 14.2801 9.41605C14.2801 8.92314 13.8805 8.52358 13.3876 8.52358Z" fill="#0071BD"/>
<path d="M17.2699 8.52358C16.7769 8.52358 16.3774 8.92314 16.3774 9.41605C16.3774 9.90897 16.7769 10.3085 17.2699 10.3085C17.7628 10.3085 18.1623 9.90897 18.1623 9.41605C18.1623 8.92314 17.7628 8.52358 17.2699 8.52358Z" fill="#0071BD"/>
<path d="M6.51549 13.2983C6.51549 12.8054 6.11592 12.4058 5.62301 12.4058C5.13009 12.4058 4.73053 12.8054 4.73053 13.2983C4.73053 13.7912 5.13009 14.1908 5.62301 14.1908C6.11592 14.1908 6.51549 13.7912 6.51549 13.2983Z" fill="#0071BD"/>
<path d="M6.51549 17.1806C6.51549 16.6877 6.11592 16.2882 5.62301 16.2882C5.13009 16.2882 4.73053 16.6877 4.73053 17.1806C4.73053 17.6736 5.13009 18.0731 5.62301 18.0731C6.11592 18.0731 6.51549 17.6736 6.51549 17.1806Z" fill="#0071BD"/>
<path d="M10.3978 13.2983C10.3978 12.8054 9.99819 12.4058 9.50527 12.4058C9.01236 12.4058 8.61279 12.8054 8.61279 13.2983C8.61279 13.7912 9.01236 14.1908 9.50527 14.1908C9.99819 14.1908 10.3978 13.7912 10.3978 13.2983Z" fill="#0071BD"/>
<path d="M10.3978 17.1806C10.3978 16.6877 9.99819 16.2882 9.50527 16.2882C9.01236 16.2882 8.61279 16.6877 8.61279 17.1806C8.61279 17.6736 9.01236 18.0731 9.50527 18.0731C9.99819 18.0731 10.3978 17.6736 10.3978 17.1806Z" fill="#0071BD"/>
<path d="M9.50527 8.52358C9.01236 8.52358 8.61279 8.92314 8.61279 9.41605C8.61279 9.90897 9.01236 10.3085 9.50527 10.3085C9.99819 10.3085 10.3978 9.90897 10.3978 9.41605C10.3978 8.92314 9.99819 8.52358 9.50527 8.52358Z" fill="#0071BD"/>
<path d="M10.3978 13.2983C10.3978 12.8054 9.99819 12.4058 9.50527 12.4058C9.01236 12.4058 8.61279 12.8054 8.61279 13.2983C8.61279 13.7912 9.01236 14.1908 9.50527 14.1908C9.99819 14.1908 10.3978 13.7912 10.3978 13.2983Z" fill="#0071BD"/>
<path d="M10.3978 17.1806C10.3978 16.6877 9.99819 16.2882 9.50527 16.2882C9.01236 16.2882 8.61279 16.6877 8.61279 17.1806C8.61279 17.6736 9.01236 18.0731 9.50527 18.0731C9.99819 18.0731 10.3978 17.6736 10.3978 17.1806Z" fill="#0071BD"/>
<path d="M5.62299 0.93747V4.50739" stroke="#0071BD" stroke-width="2.3" stroke-miterlimit="10" stroke-linecap="round" stroke-linejoin="round"/>
<path d="M17.2698 4.50739V0.93747" stroke="#0071BD" stroke-width="2.3" stroke-miterlimit="10" stroke-linecap="round" stroke-linejoin="round"/>
<path d="M14.2801 13.2983C14.2801 12.8054 13.8805 12.4058 13.3876 12.4058C12.8947 12.4058 12.4951 12.8054 12.4951 13.2983C12.4951 13.7912 12.8947 14.1908 13.3876 14.1908C13.8805 14.1908 14.2801 13.7912 14.2801 13.2983Z" fill="#0071BD"/>
<path d="M18.1623 13.2983C18.1623 12.8054 17.7628 12.4058 17.2699 12.4058C16.7769 12.4058 16.3774 12.8054 16.3774 13.2983C16.3774 13.7912 16.7769 14.1908 17.2699 14.1908C17.7628 14.1908 18.1623 13.7912 18.1623 13.2983Z" fill="#0071BD"/>
<path d="M11.4241 0.93747V4.50739" stroke="#0071BD" stroke-width="2.3" stroke-miterlimit="10" stroke-linecap="round" stroke-linejoin="round"/>
<path d="M12.6752 18.8342L15.5232 21.6134C16.1177 22.1793 17.0689 22.1159 17.5829 21.4761L21.9999 15.3064" stroke="#0071BD" stroke-width="2.3" stroke-miterlimit="10" stroke-linecap="round" stroke-linejoin="round"/>
</g>
</g>
</g>
<defs>
<clipPath id="clip0_291_2792">
<rect width="24" height="24" fill="white"/>
</clipPath>
</defs>
</svg>
