<svg width="24" height="24" viewBox="0 0 24 24" fill="none" xmlns="http://www.w3.org/2000/svg">
<g clip-path="url(#clip0_291_3069)">
<path d="M16.7993 11.9996C16.7993 14.6506 14.6504 16.7995 11.9996 16.7995C9.34862 16.7995 7.19971 14.6506 7.19971 11.9996C7.19971 9.34881 9.34862 7.19989 11.9996 7.19989C14.6504 7.19989 16.7993 9.34881 16.7993 11.9996Z" fill="#0071BD"/>
<path d="M11.9996 3.59985C7.36266 3.60516 3.60516 7.36284 3.59985 11.9996C3.60077 13.1771 3.85181 14.3411 4.3363 15.4143C4.47162 15.717 4.82647 15.8525 5.12914 15.7174C5.43163 15.582 5.56731 15.2272 5.432 14.9245C5.01654 14.0053 4.80102 13.0085 4.79992 11.9998C4.79992 8.02348 8.0233 4.79992 11.9996 4.79992C15.9759 4.79992 19.1993 8.02348 19.1993 11.9998C19.1982 13.0085 18.9827 14.0053 18.5672 14.9245C18.4319 15.2272 18.5676 15.582 18.8701 15.7174C19.1727 15.8525 19.5276 15.717 19.6629 15.4143C20.1474 14.3411 20.3984 13.1771 20.3994 11.9996C20.394 7.36284 16.6364 3.60516 11.9996 3.59985Z" fill="#0071BD"/>
<path d="M11.9996 3.15383e-05C5.38752 -0.014983 0.0150453 5.33296 3.07735e-05 11.9449C-0.00546239 14.3683 0.724576 16.7362 2.09365 18.7359C2.27309 19.0144 2.64425 19.0948 2.92293 18.9155C3.20143 18.736 3.28182 18.3647 3.10238 18.0862C3.09633 18.0769 3.09011 18.0677 3.08352 18.0586C1.85781 16.2759 1.2012 14.1634 1.2001 11.9996C1.2001 6.03517 6.03516 1.2001 11.9996 1.2001C17.9641 1.2001 22.7993 6.03517 22.7993 11.9996C22.798 14.1634 22.1412 16.2759 20.9154 18.0586C20.7207 18.3268 20.7804 18.702 21.0485 18.8966C21.3167 19.0913 21.6919 19.0316 21.8865 18.7635C21.8931 18.7545 21.8994 18.7452 21.9054 18.7359C25.6407 13.2801 24.246 5.82917 18.7902 2.09365C16.7906 0.724577 14.4228 -0.00527849 11.9996 3.15383e-05Z" fill="#0071BD"/>
<path d="M14.3994 17.9995H9.59953C6.94872 17.9995 4.7998 20.1484 4.7998 22.7992V23.3992C4.7998 23.7306 5.06842 23.9992 5.39966 23.9992H18.5991C18.9306 23.9992 19.1992 23.7306 19.1992 23.3992V22.7992C19.1992 20.1484 17.0502 17.9995 14.3994 17.9995Z" fill="#0071BD"/>
</g>
<defs>
<clipPath id="clip0_291_3069">
<rect width="24" height="24" fill="white"/>
</clipPath>
</defs>
</svg>
