<svg width="24" height="24" viewBox="0 0 24 24" fill="none" xmlns="http://www.w3.org/2000/svg">
<path d="M11.535 17.4602C11.535 20.2427 13.7925 22.5002 16.575 22.5002C19.35 22.5002 21.6075 20.2427 21.6075 17.4602C21.6075 14.6852 19.35 12.4277 16.575 12.4277C13.7925 12.4277 11.535 14.6852 11.535 17.4602ZM18.6075 15.8927C18.9 16.1852 18.8925 16.6577 18.5925 16.9502L16.4325 19.0502C16.2975 19.1852 16.11 19.2602 15.915 19.2602H15.8325C15.6075 19.2302 15.405 19.1102 15.285 18.9227L14.445 17.6477C14.22 17.2952 14.3176 16.8302 14.6625 16.6052C15.0075 16.3802 15.4725 16.4777 15.6975 16.8227L16.0425 17.3402L17.55 15.8777C17.8425 15.5852 18.3225 15.5927 18.6075 15.8927Z" fill="#5A5A5A"/>
<path d="M2.39252 6.67497V7.43248H19.305V6.67497C19.305 4.79997 17.7825 3.2775 15.915 3.2775H15.0191V2.25C15.0191 1.83582 14.6836 1.5 14.2691 1.5C13.8545 1.5 13.5191 1.83582 13.5191 2.25V3.2775H8.17751V2.25C8.17751 1.83582 7.84206 1.5 7.42751 1.5C7.01295 1.5 6.67751 1.83582 6.67751 2.25V3.2775H5.78253C3.91499 3.2775 2.39252 4.79997 2.39252 6.67497Z" fill="#5A5A5A"/>
<path d="M2.39252 16.8001C2.39252 18.6751 3.91499 20.1976 5.78253 20.1976H10.6425C10.2525 19.3651 10.035 18.4351 10.035 17.4601C10.035 13.8601 12.9675 10.9276 16.575 10.9276C17.55 10.9276 18.4725 11.1451 19.305 11.5276V8.93262H2.39252V16.8001ZM10.8525 11.4826H10.86C11.28 11.4826 11.61 11.8201 11.61 12.2326C11.61 12.6451 11.28 12.9826 10.86 12.9826C10.4475 12.9826 10.11 12.6451 10.11 12.2326C10.11 11.8201 10.44 11.4826 10.8525 11.4826ZM6.97501 11.4826H6.98251C7.395 11.4826 7.73251 11.8201 7.73251 12.2326C7.73251 12.6451 7.395 12.9826 6.98251 12.9826C6.57002 12.9826 6.23251 12.6451 6.23251 12.2326C6.23251 11.8201 6.56252 11.4826 6.97501 11.4826ZM6.97501 14.6401H6.98251C7.395 14.6401 7.73251 14.9776 7.73251 15.3901C7.73251 15.8101 7.395 16.1401 6.98251 16.1401C6.57002 16.1401 6.23251 15.8101 6.23251 15.3901C6.23251 14.9776 6.56252 14.6401 6.97501 14.6401Z" fill="#5A5A5A"/>
</svg>
