<svg width="175" height="114" viewBox="0 0 175 114" fill="none" xmlns="http://www.w3.org/2000/svg">
<path d="M171.354 102.286L39.5696 94.9907C37.1677 94.8641 34.9381 93.0344 34.5818 90.894L27.4795 14.4151C27.1232 12.2632 28.7207 10.5025 31.0651 10.491L154.115 10.4565C156.471 10.468 158.735 12.3898 159.183 14.7373L174.928 98.3394C175.365 100.664 173.767 102.436 171.354 102.286Z" fill="url(#paint0_linear_277_1260)"/>
<path d="M132.383 113.99L3.67857 105.762C1.33411 105.624 -0.125441 103.552 0.426198 101.147L25.6062 14.9099C26.1579 12.4818 28.5023 10.5025 30.8468 10.491L153.908 10.4565C156.253 10.4795 157.712 12.6314 157.161 15.2897L137.623 109.536C137.072 112.171 134.727 114.162 132.383 113.99Z" fill="url(#paint1_linear_277_1260)"/>
<path d="M125.821 102.379L10.5511 95.2208C8.35601 95.1058 6.98841 93.2991 7.50557 91.2162L25.8016 16.2448C26.3188 14.1274 28.5138 12.4128 30.7089 12.4013L145.979 12.3668C148.174 12.3783 149.541 14.2655 149.036 16.567L130.728 98.5005C130.211 100.79 128.016 102.528 125.821 102.379Z" fill="url(#paint2_linear_277_1260)"/>
<path d="M125.821 102.379L10.5511 95.2208C8.35601 95.1058 6.98841 93.2991 7.50557 91.2162L25.8016 16.2448C26.3188 14.1274 28.5138 12.4128 30.7089 12.4013L145.979 12.3668C148.174 12.3783 149.541 14.2655 149.036 16.567L130.728 98.5005C130.211 100.79 128.016 102.528 125.821 102.379Z" fill="url(#paint3_linear_277_1260)"/>
<path d="M120.684 92.7927L3.63261 87.3382C0.851427 87.1426 -0.837968 84.1736 0.426206 81.6765C0.529638 81.4809 0.598593 81.3428 0.633071 81.2737C6.67812 70.3416 11.7003 58.6385 15.5043 46.7627C19.2394 35.1056 22.7101 22.9652 22.8021 10.6176C22.8136 8.44269 24.6064 6.70506 26.7785 6.75109L140.037 8.29309C142.301 8.33912 144.059 10.2954 143.852 12.5509C142.784 24.3346 140.956 36.5095 138.244 48.0285C135.647 59.0182 131.9 69.6972 128.338 80.3991C127.223 83.7478 125.924 87.085 124.568 90.3762C123.924 91.9297 122.361 92.9078 120.684 92.7927Z" fill="url(#paint4_radial_277_1260)"/>
<path d="M120.684 92.7927L3.63261 87.3382C0.851427 87.1426 -0.837968 84.1736 0.426206 81.6765C0.529638 81.4809 0.598593 81.3428 0.633071 81.2737C6.67812 70.3416 11.7003 58.6385 15.5043 46.7627C19.2394 35.1056 22.7101 22.9652 22.8021 10.6176C22.8136 8.44269 24.6064 6.70506 26.7785 6.75109L140.037 8.29309C142.301 8.33912 144.059 10.2954 143.852 12.5509C142.784 24.3346 140.956 36.5095 138.244 48.0285C135.647 59.0182 131.9 69.6972 128.338 80.3991C127.223 83.7478 125.924 87.085 124.568 90.3762C123.924 91.9297 122.361 92.9078 120.684 92.7927Z" fill="url(#paint5_linear_277_1260)"/>
<path fill-rule="evenodd" clip-rule="evenodd" d="M48.189 37.0389C45.1013 36.9391 42.0099 36.8394 38.9145 36.7397C37.4435 36.6936 36.4666 35.6004 36.708 34.3001C37.206 31.569 37.635 28.8455 37.9951 26.1297C38.1675 24.8294 39.4777 23.8282 40.9602 23.8743C44.0555 23.974 47.1508 24.0699 50.2461 24.162C51.7287 24.2195 52.809 25.3012 52.6366 26.6015C52.2688 29.3173 51.8283 32.0369 51.3149 34.7604C51.0736 36.0722 49.66 37.0849 48.189 37.0389ZM71.6911 37.7984C68.6035 37.6986 65.5158 37.5989 62.4282 37.4992C60.9571 37.4531 59.9803 36.3484 60.2216 35.0481C60.7426 32.3246 61.187 29.605 61.5547 26.8892C61.7386 25.5889 63.0603 24.5762 64.5313 24.6223C67.6343 24.722 70.7334 24.8217 73.8287 24.9214C75.2998 24.9675 76.3801 26.0492 76.1962 27.3495C75.8208 30.0653 75.3687 32.7888 74.8401 35.5199C74.5872 36.8202 73.1736 37.8444 71.6911 37.7984ZM95.2047 38.5463C92.1171 38.4543 89.0294 38.3584 85.9418 38.2587C84.4593 38.2011 83.4939 37.1079 83.7467 35.8076C84.2754 33.0764 84.7313 30.353 85.1143 27.6372C85.2982 26.3369 86.6314 25.3242 88.1139 25.3702C91.2092 25.47 94.3045 25.5697 97.3998 25.6694C98.8708 25.7155 99.9396 26.8087 99.7558 28.109C99.365 30.8248 98.8977 33.5482 98.3537 36.2794C98.1009 37.5797 96.6758 38.6039 95.2047 38.5463ZM118.707 39.3058C115.619 39.2061 112.532 39.1064 109.444 39.0066C107.973 38.9606 107.008 37.8674 107.26 36.567C107.804 33.8359 108.276 31.1087 108.674 28.3852C108.869 27.0964 110.202 26.0837 111.673 26.1297C114.769 26.2295 117.864 26.3292 120.959 26.4289C122.442 26.475 123.499 27.5567 123.304 28.857C122.898 31.5805 122.419 34.3077 121.867 37.0389C121.603 38.3392 120.178 39.3519 118.707 39.3058ZM43.0863 55.7271C40.0063 55.6273 36.9263 55.5276 33.8464 55.4279C32.3753 55.3818 31.5134 54.2886 31.9041 52.9883C32.7009 50.2572 33.425 47.5337 34.0762 44.8179C34.3865 43.5291 35.8231 42.5164 37.2941 42.5625C40.3818 42.6622 43.4694 42.7619 46.557 42.8617C48.0281 42.9077 48.982 43.9894 48.6717 45.2897C48.0051 48.0055 47.2696 50.729 46.4651 53.4601C46.0744 54.7604 44.5574 55.7731 43.0863 55.7271ZM66.508 56.4865C63.4357 56.3868 60.3595 56.2871 57.2795 56.1874C55.8085 56.1413 54.9581 55.0481 55.3373 53.7478C56.1571 51.0166 56.9003 48.2932 57.5668 45.5774C57.8771 44.2771 59.3137 43.2644 60.7847 43.3105C63.8724 43.4102 66.96 43.5099 70.0477 43.6096C71.5187 43.6557 72.4726 44.7489 72.1508 46.0492C71.4766 48.765 70.7257 51.4846 69.8983 54.2081C69.5075 55.5199 67.979 56.5326 66.508 56.4865ZM89.9297 57.246C86.8574 57.1463 83.7812 57.0466 80.7012 56.9468C79.2302 56.9008 78.3797 55.8076 78.782 54.4957C79.6094 51.7723 80.3641 49.0489 81.046 46.3254C81.3678 45.0366 82.8044 44.0239 84.2754 44.0699C87.363 44.1697 90.4507 44.2656 93.5383 44.3576C95.0094 44.4152 95.9518 45.4969 95.63 46.7972C94.9404 49.513 94.1743 52.2364 93.3315 54.9676C92.9407 56.2679 91.4007 57.2921 89.9297 57.246ZM113.351 58.0055C110.279 57.9058 107.203 57.8061 104.123 57.7063C102.652 57.6603 101.813 56.5556 102.215 55.2552C103.058 52.5241 103.824 49.8007 104.514 47.0849C104.847 45.7846 106.295 44.7719 107.766 44.8179C110.846 44.9177 113.93 45.0174 117.017 45.1171C118.489 45.1632 119.431 46.2564 119.098 47.5567C118.393 50.2725 117.615 52.9959 116.765 55.7271C116.362 57.0274 114.822 58.0516 113.351 58.0055ZM36.2713 74.1161C33.2066 74.0163 30.1419 73.9204 27.0773 73.8284C25.6062 73.7708 24.8592 72.6776 25.3764 71.3773C26.4644 68.6538 27.4757 65.9342 28.4104 63.2184C28.8586 61.9181 30.3871 60.9054 31.8582 60.9515C34.9381 61.0512 38.0143 61.1509 41.0866 61.2507C42.5577 61.2967 43.3966 62.3899 42.9484 63.6787C42.006 66.3945 40.987 69.118 39.8914 71.8491C39.3742 73.1494 37.7423 74.1736 36.2713 74.1161ZM59.624 74.8755C56.5593 74.7758 53.4947 74.6761 50.43 74.5764C48.959 74.5303 48.2235 73.4371 48.7406 72.1368C49.8439 69.4056 50.8706 66.6822 51.8206 63.9664C52.2688 62.6661 53.8088 61.6534 55.2798 61.711C58.3522 61.803 61.4283 61.8989 64.5083 61.9986C65.9679 62.0447 66.8068 63.1379 66.3471 64.4382C65.3894 67.154 64.3589 69.8775 63.2556 72.6086C62.727 73.9089 61.0835 74.9216 59.624 74.8755ZM82.9652 75.6351C79.9006 75.5353 76.8359 75.4356 73.7713 75.3358C72.3117 75.2898 71.5647 74.1966 72.1048 72.8963C73.2158 70.1651 74.2539 67.4417 75.2193 64.7259C75.679 63.4256 77.219 62.4129 78.69 62.459C81.7624 62.5587 84.8385 62.6584 87.9185 62.7581C89.3781 62.8042 90.217 63.8859 89.7458 65.1862C88.7804 67.9097 87.7346 70.6331 86.6084 73.3566C86.0797 74.6684 84.4363 75.6811 82.9652 75.6351ZM106.306 76.3945C103.242 76.2948 100.177 76.1951 97.1125 76.0953C95.6529 76.0493 94.9174 74.9561 95.4576 73.6442C96.5838 70.9131 97.6335 68.1897 98.6065 65.4739C99.0777 64.1736 100.629 63.1609 102.1 63.2069C105.173 63.3067 108.245 63.4064 111.317 63.5061C112.788 63.5522 113.616 64.6454 113.145 65.9457C112.156 68.6615 111.095 71.3849 109.961 74.1161C109.421 75.4164 107.778 76.4406 106.306 76.3945Z" fill="url(#paint6_linear_277_1260)"/>
<path d="M39.5811 8.51174C39.9028 8.03993 40.1787 7.52209 40.5005 7.01576C40.6154 6.82013 40.7303 6.62451 40.8108 6.41737C40.8452 6.29079 40.8797 6.1527 40.9487 6.03762C41.1555 5.73843 41.5922 5.72692 41.9485 5.76144C43.3851 5.92255 43.7988 6.72808 43.7413 8.09747C43.6379 10.468 42.707 12.758 41.0176 14.4151C39.6615 15.7385 37.9951 16.4404 36.0988 16.4174C35.7426 16.4174 35.3748 16.3944 35.0415 16.2448C34.3865 15.9456 34.0072 15.2091 34.0072 14.4956C34.0072 11.9065 36.8229 10.9628 38.4893 9.68551C38.9375 9.35179 39.2823 8.94902 39.5811 8.51174Z" fill="url(#paint7_radial_277_1260)"/>
<path d="M43.546 6.10667C43.4694 5.73843 43.3774 5.37402 43.2702 5.01345C43.0748 4.34602 42.8335 3.7016 42.5232 3.06869C42.006 2.04452 41.2935 1.05487 40.2706 0.479499C39.6271 0.122767 38.8915 -0.0383427 38.156 0.00768739C35.3289 0.168793 33.559 2.99965 33.0189 6.83165C32.8695 7.92486 32.812 9.09862 32.858 10.3069C32.904 11.3541 33.0304 12.4013 33.2602 13.4254C33.5475 14.6568 33.9613 16.9237 35.7311 16.59C36.7769 16.3944 36.7999 15.071 36.4321 14.2885C36.1104 13.6096 35.7081 13.0802 35.5472 12.3207C35.3978 11.6303 35.3633 10.9053 35.3978 10.1918C35.4323 9.08711 35.5587 7.92486 35.7656 6.86617C36.1908 4.73728 36.9838 3.02266 38.2365 2.97663C39.0409 2.95362 39.5696 3.56351 39.8799 4.25396C40.0753 4.70275 40.2017 5.17456 40.2936 5.65788C40.3741 6.04913 40.3741 6.45189 40.466 6.85466C40.4737 6.88534 40.4813 6.91219 40.489 6.93521L43.7644 6.98124C43.7644 6.70506 43.592 6.32531 43.546 6.10667Z" fill="url(#paint8_radial_277_1260)"/>
<path d="M43.546 6.10667C43.4694 5.73843 43.3774 5.37402 43.2702 5.01345C43.0748 4.34602 42.8335 3.7016 42.5232 3.06869C42.006 2.04452 41.2935 1.05487 40.2706 0.479499C39.6271 0.122767 38.8915 -0.0383427 38.156 0.00768739C35.3289 0.168793 33.559 2.99965 33.0189 6.83165C32.8695 7.92486 32.812 9.09862 32.858 10.3069C32.904 11.3541 33.0304 12.4013 33.2602 13.4254C33.5475 14.6568 33.9613 16.9237 35.7311 16.59C36.7769 16.3944 36.7999 15.071 36.4321 14.2885C36.1104 13.6096 35.7081 13.0802 35.5472 12.3207C35.3978 11.6303 35.3633 10.9053 35.3978 10.1918C35.4323 9.08711 35.5587 7.92486 35.7656 6.86617C36.1908 4.73728 36.9838 3.02266 38.2365 2.97663C39.0409 2.95362 39.5696 3.56351 39.8799 4.25396C40.0753 4.70275 40.2017 5.17456 40.2936 5.65788C40.3741 6.04913 40.3741 6.45189 40.466 6.85466C40.4737 6.88534 40.4813 6.91219 40.489 6.93521L43.7644 6.98124C43.7644 6.70506 43.592 6.32531 43.546 6.10667Z" fill="url(#paint9_radial_277_1260)"/>
<path d="M43.546 6.10667C43.4694 5.73843 43.3774 5.37402 43.2702 5.01345C43.0748 4.34602 42.8335 3.7016 42.5232 3.06869C42.006 2.04452 41.2935 1.05487 40.2706 0.479499C39.6271 0.122767 38.8915 -0.0383427 38.156 0.00768739C35.3289 0.168793 33.559 2.99965 33.0189 6.83165C32.8695 7.92486 32.812 9.09862 32.858 10.3069C32.904 11.3541 33.0304 12.4013 33.2602 13.4254C33.5475 14.6568 33.9613 16.9237 35.7311 16.59C36.7769 16.3944 36.7999 15.071 36.4321 14.2885C36.1104 13.6096 35.7081 13.0802 35.5472 12.3207C35.3978 11.6303 35.3633 10.9053 35.3978 10.1918C35.4323 9.08711 35.5587 7.92486 35.7656 6.86617C36.1908 4.73728 36.9838 3.02266 38.2365 2.97663C39.0409 2.95362 39.5696 3.56351 39.8799 4.25396C40.0753 4.70275 40.2017 5.17456 40.2936 5.65788C40.3741 6.04913 40.3741 6.45189 40.466 6.85466C40.4737 6.88534 40.4813 6.91219 40.489 6.93521L43.7644 6.98124C43.7644 6.70506 43.592 6.32531 43.546 6.10667Z" fill="url(#paint10_radial_277_1260)"/>
<path d="M62.4742 8.78793C62.796 8.31612 63.0833 7.80979 63.3936 7.29195C63.5085 7.09633 63.6349 6.9122 63.7039 6.69356C63.7499 6.56698 63.7728 6.42889 63.8533 6.31381C64.0487 6.01462 64.4854 6.00311 64.8416 6.04914C66.2782 6.19873 66.6919 7.00426 66.6345 8.37366C66.531 10.7557 65.6116 13.0342 63.9107 14.6913C62.5661 16.0146 60.8882 16.7281 58.992 16.7051C58.6357 16.6936 58.2679 16.6706 57.9461 16.521C57.2911 16.2333 56.9118 15.4853 56.9003 14.7718C56.9003 12.1826 59.7275 11.2505 61.3939 9.9732C61.8306 9.62798 62.1754 9.22522 62.4742 8.78793Z" fill="url(#paint11_radial_277_1260)"/>
<path d="M66.4506 6.38286C66.3663 6.02229 66.2705 5.66172 66.1632 5.30115C65.9679 4.63372 65.7265 3.97779 65.4162 3.35639C64.9106 2.32071 64.1865 1.33106 63.1637 0.767196C62.5201 0.398956 61.7846 0.249357 61.0491 0.283879C58.2219 0.456492 56.4636 3.28734 55.9119 7.10783C55.7625 8.20105 55.7051 9.37481 55.751 10.5946C55.797 11.6303 55.9234 12.6775 56.1648 13.7016C56.4406 14.9444 56.8658 17.1999 58.6357 16.8662C59.6815 16.6706 59.693 15.3472 59.3252 14.5647C59.0034 13.8858 58.6012 13.3564 58.4403 12.6084C58.2909 11.9065 58.2679 11.193 58.2909 10.4795C58.3369 9.37481 58.4518 8.21256 58.6701 7.15386C59.0839 5.01347 59.8768 3.29885 61.1295 3.26433C61.9455 3.24131 62.4742 3.8397 62.773 4.53015C62.9683 4.97895 63.0947 5.45075 63.1982 5.93406C63.2671 6.32532 63.2786 6.73959 63.3706 7.13085C63.3782 7.16154 63.3859 7.18839 63.3935 7.2114L66.6574 7.25743C66.6574 6.98125 66.4965 6.61301 66.4506 6.38286Z" fill="url(#paint12_radial_277_1260)"/>
<path d="M66.4506 6.38286C66.3663 6.02229 66.2705 5.66172 66.1632 5.30115C65.9679 4.63372 65.7265 3.97779 65.4162 3.35639C64.9106 2.32071 64.1865 1.33106 63.1637 0.767196C62.5201 0.398956 61.7846 0.249357 61.0491 0.283879C58.2219 0.456492 56.4636 3.28734 55.9119 7.10783C55.7625 8.20105 55.7051 9.37481 55.751 10.5946C55.797 11.6303 55.9234 12.6775 56.1648 13.7016C56.4406 14.9444 56.8658 17.1999 58.6357 16.8662C59.6815 16.6706 59.693 15.3472 59.3252 14.5647C59.0034 13.8858 58.6012 13.3564 58.4403 12.6084C58.2909 11.9065 58.2679 11.193 58.2909 10.4795C58.3369 9.37481 58.4518 8.21256 58.6701 7.15386C59.0839 5.01347 59.8768 3.29885 61.1295 3.26433C61.9455 3.24131 62.4742 3.8397 62.773 4.53015C62.9683 4.97895 63.0947 5.45075 63.1982 5.93406C63.2671 6.32532 63.2786 6.73959 63.3706 7.13085C63.3782 7.16154 63.3859 7.18839 63.3935 7.2114L66.6574 7.25743C66.6574 6.98125 66.4965 6.61301 66.4506 6.38286Z" fill="url(#paint13_radial_277_1260)"/>
<path d="M66.4506 6.38286C66.3663 6.02229 66.2705 5.66172 66.1632 5.30115C65.9679 4.63372 65.7265 3.97779 65.4162 3.35639C64.9106 2.32071 64.1865 1.33106 63.1637 0.767196C62.5201 0.398956 61.7846 0.249357 61.0491 0.283879C58.2219 0.456492 56.4636 3.28734 55.9119 7.10783C55.7625 8.20105 55.7051 9.37481 55.751 10.5946C55.797 11.6303 55.9234 12.6775 56.1648 13.7016C56.4406 14.9444 56.8658 17.1999 58.6357 16.8662C59.6815 16.6706 59.693 15.3472 59.3252 14.5647C59.0034 13.8858 58.6012 13.3564 58.4403 12.6084C58.2909 11.9065 58.2679 11.193 58.2909 10.4795C58.3369 9.37481 58.4518 8.21256 58.6701 7.15386C59.0839 5.01347 59.8768 3.29885 61.1295 3.26433C61.9455 3.24131 62.4742 3.8397 62.773 4.53015C62.9683 4.97895 63.0947 5.45075 63.1982 5.93406C63.2671 6.32532 63.2786 6.73959 63.3706 7.13085C63.3782 7.16154 63.3859 7.18839 63.3935 7.2114L66.6574 7.25743C66.6574 6.98125 66.4965 6.61301 66.4506 6.38286Z" fill="url(#paint14_radial_277_1260)"/>
<path d="M85.3672 9.07563C85.7005 8.59231 85.9763 8.08598 86.2866 7.56814C86.413 7.38402 86.5279 7.18839 86.5969 6.96975C86.6428 6.84316 86.6773 6.70508 86.7463 6.60151C86.9531 6.29081 87.3784 6.29081 87.7461 6.32533C89.1827 6.47493 89.5849 7.28045 89.5274 8.64985C89.4355 11.0319 88.5046 13.3104 86.8152 14.9675C85.4591 16.2908 83.7812 17.0043 81.885 16.9813C81.5287 16.9813 81.1609 16.9468 80.8391 16.7972C80.1841 16.5095 79.8048 15.773 79.8048 15.048C79.8048 12.4703 82.6205 11.5267 84.2869 10.2494C84.7351 9.90416 85.0684 9.50141 85.3672 9.07563Z" fill="url(#paint15_radial_277_1260)"/>
<path d="M89.3436 6.67054C89.267 6.3023 89.175 5.9379 89.0678 5.57733C88.8724 4.90989 88.6311 4.25396 88.3208 3.63256C87.8036 2.60839 87.0796 1.61874 86.0682 1.04337C85.4247 0.686633 84.6891 0.525531 83.9536 0.571561C81.1265 0.732666 79.3566 3.56351 78.8165 7.39551C78.6556 8.47722 78.5981 9.65099 78.6556 10.8708C78.6901 11.918 78.828 12.9536 79.0578 13.9778C79.3451 15.2206 79.7589 17.4761 81.5287 17.1424C82.5745 16.9467 82.5975 15.6234 82.2297 14.8409C81.908 14.1619 81.5057 13.6326 81.3333 12.8846C81.1839 12.1826 81.1609 11.4692 81.1839 10.7557C81.2299 9.65099 81.3563 8.48873 81.5632 7.43003C81.9884 5.30115 82.7699 3.57502 84.0341 3.5405C84.8385 3.51748 85.3672 4.12738 85.6775 4.80632C85.8729 5.25512 85.9993 5.73843 86.0912 6.21024C86.1717 6.6015 86.1717 7.01577 86.2636 7.40702C86.2713 7.43771 86.2789 7.4684 86.2866 7.49908L89.562 7.53361C89.562 7.25742 89.3896 6.88918 89.3436 6.67054Z" fill="url(#paint16_radial_277_1260)"/>
<path d="M89.3436 6.67054C89.267 6.3023 89.175 5.9379 89.0678 5.57733C88.8724 4.90989 88.6311 4.25396 88.3208 3.63256C87.8036 2.60839 87.0796 1.61874 86.0682 1.04337C85.4247 0.686633 84.6891 0.525531 83.9536 0.571561C81.1265 0.732666 79.3566 3.56351 78.8165 7.39551C78.6556 8.47722 78.5981 9.65099 78.6556 10.8708C78.6901 11.918 78.828 12.9536 79.0578 13.9778C79.3451 15.2206 79.7589 17.4761 81.5287 17.1424C82.5745 16.9467 82.5975 15.6234 82.2297 14.8409C81.908 14.1619 81.5057 13.6326 81.3333 12.8846C81.1839 12.1826 81.1609 11.4692 81.1839 10.7557C81.2299 9.65099 81.3563 8.48873 81.5632 7.43003C81.9884 5.30115 82.7699 3.57502 84.0341 3.5405C84.8385 3.51748 85.3672 4.12738 85.6775 4.80632C85.8729 5.25512 85.9993 5.73843 86.0912 6.21024C86.1717 6.6015 86.1717 7.01577 86.2636 7.40702C86.2713 7.43771 86.2789 7.4684 86.2866 7.49908L89.562 7.53361C89.562 7.25742 89.3896 6.88918 89.3436 6.67054Z" fill="url(#paint17_radial_277_1260)"/>
<path d="M89.3436 6.67054C89.267 6.3023 89.175 5.9379 89.0678 5.57733C88.8724 4.90989 88.6311 4.25396 88.3208 3.63256C87.8036 2.60839 87.0796 1.61874 86.0682 1.04337C85.4247 0.686633 84.6891 0.525531 83.9536 0.571561C81.1265 0.732666 79.3566 3.56351 78.8165 7.39551C78.6556 8.47722 78.5981 9.65099 78.6556 10.8708C78.6901 11.918 78.828 12.9536 79.0578 13.9778C79.3451 15.2206 79.7589 17.4761 81.5287 17.1424C82.5745 16.9467 82.5975 15.6234 82.2297 14.8409C81.908 14.1619 81.5057 13.6326 81.3333 12.8846C81.1839 12.1826 81.1609 11.4692 81.1839 10.7557C81.2299 9.65099 81.3563 8.48873 81.5632 7.43003C81.9884 5.30115 82.7699 3.57502 84.0341 3.5405C84.8385 3.51748 85.3672 4.12738 85.6775 4.80632C85.8729 5.25512 85.9993 5.73843 86.0912 6.21024C86.1717 6.6015 86.1717 7.01577 86.2636 7.40702C86.2713 7.43771 86.2789 7.4684 86.2866 7.49908L89.562 7.53361C89.562 7.25742 89.3896 6.88918 89.3436 6.67054Z" fill="url(#paint18_radial_277_1260)"/>
<path d="M108.272 9.40931C108.593 8.9375 108.869 8.43117 109.191 7.91333C109.306 7.7177 109.421 7.52207 109.501 7.31494C109.547 7.18836 109.57 7.05027 109.651 6.93519C109.846 6.636 110.283 6.62449 110.639 6.67052C112.076 6.82012 112.489 7.62565 112.432 8.99504C112.329 11.3656 111.398 13.6556 109.708 15.3127C108.352 16.636 106.686 17.3495 104.789 17.3265C104.433 17.315 104.065 17.292 103.732 17.1424C103.089 16.8547 102.698 16.1067 102.698 15.3932C102.698 12.804 105.513 11.8719 107.18 10.5946C107.628 10.2494 107.973 9.84659 108.272 9.40931Z" fill="url(#paint19_radial_277_1260)"/>
<path d="M112.237 7.00426C112.16 6.63602 112.068 6.27161 111.961 5.91105C111.765 5.25512 111.524 4.59918 111.214 3.97778C110.708 2.9421 109.984 1.95246 108.961 1.38859C108.318 1.02035 107.582 0.870756 106.847 0.905278C104.019 1.06638 102.25 3.90874 101.709 7.72923C101.56 8.82244 101.503 9.99621 101.549 11.2045C101.595 12.2517 101.721 13.2989 101.951 14.323C102.238 15.5658 102.663 17.8213 104.433 17.4876C105.468 17.292 105.491 15.9686 105.123 15.1861C104.801 14.5072 104.399 13.9778 104.238 13.2298C104.088 12.5279 104.065 11.8029 104.088 11.1009C104.134 9.99621 104.249 8.83395 104.456 7.77526C104.881 5.63486 105.674 3.92024 106.927 3.88572C107.743 3.8512 108.26 4.4611 108.571 5.15155C108.766 5.60034 108.892 6.07215 108.984 6.55546C109.065 6.94672 109.076 7.36099 109.168 7.75225C109.168 7.78293 109.172 7.80978 109.18 7.83279L112.455 7.87883C112.455 7.60265 112.294 7.2229 112.237 7.00426Z" fill="url(#paint20_radial_277_1260)"/>
<path d="M112.237 7.00426C112.16 6.63602 112.068 6.27161 111.961 5.91105C111.765 5.25512 111.524 4.59918 111.214 3.97778C110.708 2.9421 109.984 1.95246 108.961 1.38859C108.318 1.02035 107.582 0.870756 106.847 0.905278C104.019 1.06638 102.25 3.90874 101.709 7.72923C101.56 8.82244 101.503 9.99621 101.549 11.2045C101.595 12.2517 101.721 13.2989 101.951 14.323C102.238 15.5658 102.663 17.8213 104.433 17.4876C105.468 17.292 105.491 15.9686 105.123 15.1861C104.801 14.5072 104.399 13.9778 104.238 13.2298C104.088 12.5279 104.065 11.8029 104.088 11.1009C104.134 9.99621 104.249 8.83395 104.456 7.77526C104.881 5.63486 105.674 3.92024 106.927 3.88572C107.743 3.8512 108.26 4.4611 108.571 5.15155C108.766 5.60034 108.892 6.07215 108.984 6.55546C109.065 6.94672 109.076 7.36099 109.168 7.75225C109.168 7.78293 109.172 7.80978 109.18 7.83279L112.455 7.87883C112.455 7.60265 112.294 7.2229 112.237 7.00426Z" fill="url(#paint21_radial_277_1260)"/>
<path d="M112.237 7.00426C112.16 6.63602 112.068 6.27161 111.961 5.91105C111.765 5.25512 111.524 4.59918 111.214 3.97778C110.708 2.9421 109.984 1.95246 108.961 1.38859C108.318 1.02035 107.582 0.870756 106.847 0.905278C104.019 1.06638 102.25 3.90874 101.709 7.72923C101.56 8.82244 101.503 9.99621 101.549 11.2045C101.595 12.2517 101.721 13.2989 101.951 14.323C102.238 15.5658 102.663 17.8213 104.433 17.4876C105.468 17.292 105.491 15.9686 105.123 15.1861C104.801 14.5072 104.399 13.9778 104.238 13.2298C104.088 12.5279 104.065 11.8029 104.088 11.1009C104.134 9.99621 104.249 8.83395 104.456 7.77526C104.881 5.63486 105.674 3.92024 106.927 3.88572C107.743 3.8512 108.26 4.4611 108.571 5.15155C108.766 5.60034 108.892 6.07215 108.984 6.55546C109.065 6.94672 109.076 7.36099 109.168 7.75225C109.168 7.78293 109.172 7.80978 109.18 7.83279L112.455 7.87883C112.455 7.60265 112.294 7.2229 112.237 7.00426Z" fill="url(#paint22_radial_277_1260)"/>
<path d="M131.165 9.77758C131.498 9.30577 131.774 8.78793 132.084 8.2701C132.199 8.08598 132.325 7.89035 132.394 7.6717C132.44 7.54512 132.463 7.40703 132.544 7.30346C132.739 7.00427 133.176 6.99276 133.532 7.02728C134.969 7.17688 135.382 7.9824 135.325 9.3518C135.233 11.7339 134.302 14.0123 132.601 15.6694C131.257 16.9928 129.579 17.7063 127.682 17.6832C127.326 17.6832 126.958 17.6487 126.637 17.5106C125.982 17.2114 125.602 16.475 125.602 15.75C125.602 13.1723 128.418 12.2287 130.084 10.9513C130.521 10.6061 130.866 10.2034 131.165 9.77758Z" fill="url(#paint23_radial_277_1260)"/>
<path d="M135.141 7.37249C135.057 7.00425 134.961 6.63985 134.854 6.27928C134.658 5.61184 134.417 4.95592 134.118 4.33451C133.601 3.31034 132.877 2.3207 131.854 1.74532C131.211 1.38859 130.475 1.22748 129.74 1.27351C126.924 1.43462 125.154 4.26547 124.614 8.09747C124.453 9.19068 124.396 10.3529 124.442 11.5727C124.488 12.6199 124.625 13.6556 124.855 14.6798C125.131 15.9226 125.556 18.178 127.326 17.8443C128.372 17.6487 128.395 16.3253 128.016 15.5428C127.694 14.8639 127.292 14.3345 127.131 13.5865C126.981 12.8961 126.958 12.1711 126.981 11.4577C127.027 10.3529 127.142 9.19068 127.361 8.13199C127.774 6.0031 128.567 4.27698 129.82 4.24245C130.636 4.21944 131.165 4.82933 131.463 5.51978C131.67 5.95707 131.785 6.44038 131.889 6.91219C131.969 7.31495 131.969 7.71772 132.061 8.10897C132.069 8.13966 132.076 8.17035 132.084 8.20103L135.359 8.24707C135.359 7.95938 135.187 7.59113 135.141 7.37249Z" fill="url(#paint24_radial_277_1260)"/>
<path d="M135.141 7.37249C135.057 7.00425 134.961 6.63985 134.854 6.27928C134.658 5.61184 134.417 4.95592 134.118 4.33451C133.601 3.31034 132.877 2.3207 131.854 1.74532C131.211 1.38859 130.475 1.22748 129.74 1.27351C126.924 1.43462 125.154 4.26547 124.614 8.09747C124.453 9.19068 124.396 10.3529 124.442 11.5727C124.488 12.6199 124.625 13.6556 124.855 14.6798C125.131 15.9226 125.556 18.178 127.326 17.8443C128.372 17.6487 128.395 16.3253 128.016 15.5428C127.694 14.8639 127.292 14.3345 127.131 13.5865C126.981 12.8961 126.958 12.1711 126.981 11.4577C127.027 10.3529 127.142 9.19068 127.361 8.13199C127.774 6.0031 128.567 4.27698 129.82 4.24245C130.636 4.21944 131.165 4.82933 131.463 5.51978C131.67 5.95707 131.785 6.44038 131.889 6.91219C131.969 7.31495 131.969 7.71772 132.061 8.10897C132.069 8.13966 132.076 8.17035 132.084 8.20103L135.359 8.24707C135.359 7.95938 135.187 7.59113 135.141 7.37249Z" fill="url(#paint25_radial_277_1260)"/>
<path d="M135.141 7.37249C135.057 7.00425 134.961 6.63985 134.854 6.27928C134.658 5.61184 134.417 4.95592 134.118 4.33451C133.601 3.31034 132.877 2.3207 131.854 1.74532C131.211 1.38859 130.475 1.22748 129.74 1.27351C126.924 1.43462 125.154 4.26547 124.614 8.09747C124.453 9.19068 124.396 10.3529 124.442 11.5727C124.488 12.6199 124.625 13.6556 124.855 14.6798C125.131 15.9226 125.556 18.178 127.326 17.8443C128.372 17.6487 128.395 16.3253 128.016 15.5428C127.694 14.8639 127.292 14.3345 127.131 13.5865C126.981 12.8961 126.958 12.1711 126.981 11.4577C127.027 10.3529 127.142 9.19068 127.361 8.13199C127.774 6.0031 128.567 4.27698 129.82 4.24245C130.636 4.21944 131.165 4.82933 131.463 5.51978C131.67 5.95707 131.785 6.44038 131.889 6.91219C131.969 7.31495 131.969 7.71772 132.061 8.10897C132.069 8.13966 132.076 8.17035 132.084 8.20103L135.359 8.24707C135.359 7.95938 135.187 7.59113 135.141 7.37249Z" fill="url(#paint26_radial_277_1260)"/>
<path fill-rule="evenodd" clip-rule="evenodd" d="M51.3149 34.7604C51.8283 32.0369 52.2688 29.3173 52.6366 26.6015C52.809 25.3012 51.7287 24.2195 50.2461 24.162C47.1508 24.0699 44.0555 23.974 40.9602 23.8743C39.4777 23.8282 38.1675 24.8294 37.9951 26.1297C37.635 28.8455 37.206 31.569 36.708 34.3001C36.4666 35.6004 37.4435 36.6936 38.9145 36.7397C42.0099 36.8394 45.1013 36.9391 48.189 37.0389C49.66 37.0849 51.0736 36.0722 51.3149 34.7604ZM93.3315 54.9676C94.1743 52.2364 94.9404 49.513 95.63 46.7972C95.9518 45.4969 95.0094 44.4152 93.5383 44.3576C90.4507 44.2656 87.363 44.1697 84.2754 44.0699C82.8043 44.0239 81.3678 45.0366 81.046 46.3254C80.3641 49.0489 79.6094 51.7723 78.782 54.4957C78.3797 55.8076 79.2302 56.9008 80.7012 56.9469C83.7812 57.0466 86.8574 57.1463 89.9297 57.246C91.4007 57.2921 92.9407 56.2679 93.3315 54.9676Z" fill="url(#paint27_linear_277_1260)"/>
<defs>
<linearGradient id="paint0_linear_277_1260" x1="29.1709" y1="-10.7734" x2="200.225" y2="21.8817" gradientUnits="userSpaceOnUse">
<stop stop-color="#B6E2FF"/>
<stop offset="0.178" stop-color="#89C9F3"/>
<stop offset="0.735" stop-color="#3D82AD"/>
<stop offset="0.9" stop-color="#0479C1"/>
<stop offset="1" stop-color="#3099E0"/>
</linearGradient>
<linearGradient id="paint1_linear_277_1260" x1="2.16156" y1="-13.4791" x2="184.815" y2="19.4181" gradientUnits="userSpaceOnUse">
<stop stop-color="#B6E2FF"/>
<stop offset="0.178" stop-color="#89C9F3"/>
<stop offset="0.735" stop-color="#3D82AD"/>
<stop offset="0.9" stop-color="#0479C1"/>
<stop offset="1" stop-color="#3099E0"/>
</linearGradient>
<linearGradient id="paint2_linear_277_1260" x1="8.8272" y1="-8.97967" x2="173.505" y2="20.6806" gradientUnits="userSpaceOnUse">
<stop stop-color="#A6BBBE"/>
<stop offset="0.058" stop-color="#ECFCFF"/>
<stop offset="0.735" stop-color="#717F82"/>
<stop offset="0.9" stop-color="#BED8D9"/>
<stop offset="1" stop-color="#A6BBBE"/>
</linearGradient>
<linearGradient id="paint3_linear_277_1260" x1="116.293" y1="11.1585" x2="110.394" y2="101.871" gradientUnits="userSpaceOnUse">
<stop stop-color="#F3F8FB"/>
<stop offset="0.035" stop-color="#DCEAED"/>
<stop offset="0.065" stop-color="#C4DFE0"/>
<stop offset="0.843" stop-color="#C1DADB"/>
<stop offset="0.946" stop-color="white"/>
<stop offset="1" stop-color="#A6BBBE"/>
</linearGradient>
<radialGradient id="paint4_radial_277_1260" cx="0" cy="0" r="1" gradientUnits="userSpaceOnUse" gradientTransform="translate(-63.1732 5.43923) scale(207.635 207.906)">
<stop offset="0.409" stop-color="#F3F8FB"/>
<stop offset="0.474" stop-color="#DCEAED"/>
<stop offset="0.966" stop-color="#ECFCFF"/>
<stop offset="0.979" stop-color="#BED8D9"/>
<stop offset="0.999" stop-color="#A6BBBE"/>
</radialGradient>
<linearGradient id="paint5_linear_277_1260" x1="100.618" y1="6.06064" x2="97.5182" y2="95.0825" gradientUnits="userSpaceOnUse">
<stop stop-color="#F3F8FB"/>
<stop offset="0.035" stop-color="#DCEAED"/>
<stop offset="0.065" stop-color="#C4DFE0"/>
<stop offset="0.501" stop-color="#C1DADB"/>
<stop offset="0.942" stop-color="white"/>
<stop offset="1" stop-color="#A6BBBE"/>
</linearGradient>
<linearGradient id="paint6_linear_277_1260" x1="89.8492" y1="19.6395" x2="88.1669" y2="80.9054" gradientUnits="userSpaceOnUse">
<stop offset="0.051" stop-color="#BED8D9"/>
<stop offset="0.18" stop-color="#A6BBBE"/>
<stop offset="0.306" stop-color="#717F82"/>
<stop offset="0.392" stop-color="#BED8D9"/>
<stop offset="0.508" stop-color="#A6BBBE"/>
<stop offset="0.627" stop-color="#717F82"/>
<stop offset="0.719" stop-color="#BED8D9"/>
<stop offset="0.84" stop-color="#A6BBBE"/>
<stop offset="0.953" stop-color="#717F82"/>
</linearGradient>
<radialGradient id="paint7_radial_277_1260" cx="0" cy="0" r="1" gradientUnits="userSpaceOnUse" gradientTransform="translate(31.2375 5.20908) scale(12.9176 12.9344)">
<stop offset="0.737" stop-color="#A6BBBE"/>
<stop offset="0.854" stop-color="#A6BBBE"/>
<stop offset="0.977" stop-color="#A6BBBE"/>
</radialGradient>
<radialGradient id="paint8_radial_277_1260" cx="0" cy="0" r="1" gradientUnits="userSpaceOnUse" gradientTransform="translate(54.2915 9.34028) scale(23.5366 23.5674)">
<stop offset="0.883" stop-color="#6945A9"/>
<stop offset="0.937" stop-color="#CF8AFF"/>
<stop offset="0.973" stop-color="#E8C7FC"/>
</radialGradient>
<radialGradient id="paint9_radial_277_1260" cx="0" cy="0" r="1" gradientUnits="userSpaceOnUse" gradientTransform="translate(41.4314 7.00426) scale(7.35519 7.36481)">
<stop stop-color="#0479C1"/>
<stop offset="0.919" stop-color="#0071BD"/>
</radialGradient>
<radialGradient id="paint10_radial_277_1260" cx="0" cy="0" r="1" gradientUnits="userSpaceOnUse" gradientTransform="translate(38.2422 -0.107461) scale(7.34755 7.36984)">
<stop stop-color="#0071BD"/>
<stop offset="1" stop-color="#51B8F7"/>
</radialGradient>
<radialGradient id="paint11_radial_277_1260" cx="0" cy="0" r="1" gradientUnits="userSpaceOnUse" gradientTransform="translate(54.1306 5.49678) scale(12.9176 12.9344)">
<stop offset="0.737" stop-color="#A6BBBE"/>
<stop offset="0.854" stop-color="#A6BBBE"/>
<stop offset="0.977" stop-color="#A6BBBE"/>
</radialGradient>
<radialGradient id="paint12_radial_277_1260" cx="0" cy="0" r="1" gradientUnits="userSpaceOnUse" gradientTransform="translate(77.1845 9.62798) scale(23.5366 23.5674)">
<stop offset="0.883" stop-color="#6945A9"/>
<stop offset="0.937" stop-color="#CF8AFF"/>
<stop offset="0.973" stop-color="#E8C7FC"/>
</radialGradient>
<radialGradient id="paint13_radial_277_1260" cx="0" cy="0" r="1" gradientUnits="userSpaceOnUse" gradientTransform="translate(64.3359 7.29195) scale(7.35519 7.36481)">
<stop stop-color="#0071BD"/>
<stop offset="0.919" stop-color="#0479C1"/>
</radialGradient>
<radialGradient id="paint14_radial_277_1260" cx="0" cy="0" r="1" gradientUnits="userSpaceOnUse" gradientTransform="translate(61.141 0.180312) scale(7.35519 7.36481)">
<stop stop-color="#0479C1"/>
<stop offset="1" stop-color="#39759A"/>
</radialGradient>
<radialGradient id="paint15_radial_277_1260" cx="0" cy="0" r="1" gradientUnits="userSpaceOnUse" gradientTransform="translate(77.0351 5.77297) scale(12.9176 12.9344)">
<stop offset="0.737" stop-color="#A6BBBE"/>
<stop offset="0.854" stop-color="#A6BBBE"/>
<stop offset="0.977" stop-color="#A6BBBE"/>
</radialGradient>
<radialGradient id="paint16_radial_277_1260" cx="0" cy="0" r="1" gradientUnits="userSpaceOnUse" gradientTransform="translate(100.078 9.90415) scale(23.5366 23.5674)">
<stop offset="0.883" stop-color="#6945A9"/>
<stop offset="0.937" stop-color="#CF8AFF"/>
<stop offset="0.973" stop-color="#E8C7FC"/>
</radialGradient>
<radialGradient id="paint17_radial_277_1260" cx="0" cy="0" r="1" gradientUnits="userSpaceOnUse" gradientTransform="translate(87.229 7.56813) scale(7.35519 7.36481)">
<stop stop-color="#6125E5"/>
<stop offset="0.919" stop-color="#CF8AFF"/>
</radialGradient>
<radialGradient id="paint18_radial_277_1260" cx="0" cy="0" r="1" gradientUnits="userSpaceOnUse" gradientTransform="translate(84.0366 0.456486) scale(7.35177 7.36481)">
<stop stop-color="#0071BD"/>
<stop offset="1" stop-color="#51B8F7"/>
</radialGradient>
<radialGradient id="paint19_radial_277_1260" cx="0" cy="0" r="1" gradientUnits="userSpaceOnUse" gradientTransform="translate(99.9281 6.11816) scale(12.9175 12.9344)">
<stop offset="0.737" stop-color="#A6BBBE"/>
<stop offset="0.854" stop-color="#A6BBBE"/>
<stop offset="0.977" stop-color="#A6BBBE"/>
</radialGradient>
<radialGradient id="paint20_radial_277_1260" cx="0" cy="0" r="1" gradientUnits="userSpaceOnUse" gradientTransform="translate(122.982 10.2379) scale(23.5366 23.5674)">
<stop offset="0.883" stop-color="#6945A9"/>
<stop offset="0.937" stop-color="#CF8AFF"/>
<stop offset="0.973" stop-color="#E8C7FC"/>
</radialGradient>
<radialGradient id="paint21_radial_277_1260" cx="0" cy="0" r="1" gradientUnits="userSpaceOnUse" gradientTransform="translate(110.122 7.90184) scale(7.35518 7.36481)">
<stop stop-color="#6125E5"/>
<stop offset="0.919" stop-color="#CF8AFF"/>
</radialGradient>
<radialGradient id="paint22_radial_277_1260" cx="0" cy="0" r="1" gradientUnits="userSpaceOnUse" gradientTransform="translate(106.939 0.801711) scale(7.35518 7.36481)">
<stop stop-color="#0479C1"/>
<stop offset="1" stop-color="#39759A"/>
</radialGradient>
<radialGradient id="paint23_radial_277_1260" cx="0" cy="0" r="1" gradientUnits="userSpaceOnUse" gradientTransform="translate(122.821 6.47492) scale(12.9176 12.9344)">
<stop offset="0.737" stop-color="#A6BBBE"/>
<stop offset="0.854" stop-color="#A6BBBE"/>
<stop offset="0.977" stop-color="#A6BBBE"/>
</radialGradient>
<radialGradient id="paint24_radial_277_1260" cx="0" cy="0" r="1" gradientUnits="userSpaceOnUse" gradientTransform="translate(145.875 10.6061) scale(23.5366 23.5674)">
<stop offset="0.883" stop-color="#6945A9"/>
<stop offset="0.937" stop-color="#CF8AFF"/>
<stop offset="0.973" stop-color="#E8C7FC"/>
</radialGradient>
<radialGradient id="paint25_radial_277_1260" cx="0" cy="0" r="1" gradientUnits="userSpaceOnUse" gradientTransform="translate(133.026 8.27008) scale(7.35519 7.36481)">
<stop stop-color="#0479C1"/>
<stop offset="0.919" stop-color="#447697"/>
</radialGradient>
<radialGradient id="paint26_radial_277_1260" cx="0" cy="0" r="1" gradientUnits="userSpaceOnUse" gradientTransform="translate(129.832 1.15844) scale(7.35519 7.36481)">
<stop stop-color="#0071BD"/>
<stop offset="1" stop-color="#51B8F7"/>
</radialGradient>
<linearGradient id="paint27_linear_277_1260" x1="77.1386" y1="3.41391" x2="75.56" y2="58.2816" gradientUnits="userSpaceOnUse">
<stop offset="0.356" stop-color="#0071BD"/>
<stop offset="0.479" stop-color="#217EBC"/>
<stop offset="0.614" stop-color="#0071BD"/>
<stop offset="0.741" stop-color="#6ABFF9"/>
<stop offset="0.852" stop-color="#0071BD"/>
<stop offset="1" stop-color="#34ADFF"/>
</linearGradient>
</defs>
</svg>
