<svg width="24" height="24" viewBox="0 0 24 24" fill="none" xmlns="http://www.w3.org/2000/svg">
<path fill-rule="evenodd" clip-rule="evenodd" d="M6 0C6.66274 0 7.2 0.537264 7.2 1.2V2.4H16.8V1.2C16.8 0.537264 17.3372 0 18 0C18.6628 0 19.2 0.537264 19.2 1.2V2.4H20.4C22.3883 2.4 24 4.01178 24 6V14.4C24 15.0628 23.4628 15.6 22.8 15.6C22.1372 15.6 21.6 15.0628 21.6 14.4V9.6H2.4V20.4C2.4 21.0628 2.93726 21.6 3.6 21.6H9.6C10.2628 21.6 10.8 22.1372 10.8 22.8C10.8 23.4628 10.2628 24 9.6 24H3.6C1.61178 24 0 22.3883 0 20.4V6C0 4.01178 1.61178 2.4 3.6 2.4H4.8V1.2C4.8 0.537264 5.33726 0 6 0ZM3.6 4.8C2.93726 4.8 2.4 5.33726 2.4 6V7.2H21.6V6C21.6 5.33726 21.0628 4.8 20.4 4.8H3.6Z" fill="#5A5A5A"/>
<path d="M19.5516 18.8485C19.083 18.3799 19.083 17.62 19.5516 17.1514C20.0202 16.6828 20.7801 16.6828 21.2487 17.1514L23.6487 19.5514C24.1173 20.02 24.1173 20.7799 23.6487 21.2485L21.2487 23.6485C20.7801 24.1171 20.0202 24.1171 19.5516 23.6485C19.083 23.1799 19.083 22.42 19.5516 21.9514L21.1031 20.4L19.5516 18.8485Z" fill="#5A5A5A"/>
<path d="M13.5516 17.1514C13.083 17.62 13.083 18.3799 13.5516 18.8485L15.1031 20.4L13.5516 21.9514C13.083 22.42 13.083 23.1799 13.5516 23.6485C14.0202 24.1171 14.7801 24.1171 15.2487 23.6485L17.6487 21.2485C18.1173 20.7799 18.1173 20.02 17.6487 19.5514L15.2487 17.1514C14.7801 16.6828 14.0202 16.6828 13.5516 17.1514Z" fill="#5A5A5A"/>
</svg>
