<svg width="24" height="24" viewBox="0 0 24 24" fill="none" xmlns="http://www.w3.org/2000/svg">
<path d="M22 11H14C13.7348 11 13.4804 10.8946 13.2929 10.7071C13.1054 10.5196 13 10.2652 13 10V2C13 1.73478 13.1054 1.48043 13.2929 1.29289C13.4804 1.10536 13.7348 1 14 1H22C22.2652 1 22.5196 1.10536 22.7071 1.29289C22.8946 1.48043 23 1.73478 23 2V10C23 10.2652 22.8946 10.5196 22.7071 10.7071C22.5196 10.8946 22.2652 11 22 11ZM15 9H21V3H15V9Z" fill="#5A5A5A"/>
<path d="M18 23C17.0111 23 16.0444 22.7068 15.2222 22.1574C14.3999 21.6079 13.759 20.8271 13.3806 19.9134C13.0022 18.9998 12.9031 17.9945 13.0961 17.0246C13.289 16.0546 13.7652 15.1637 14.4645 14.4645C15.1637 13.7652 16.0546 13.289 17.0246 13.0961C17.9945 12.9031 18.9998 13.0022 19.9134 13.3806C20.8271 13.759 21.6079 14.3999 22.1574 15.2222C22.7068 16.0444 23 17.0111 23 18C22.9984 19.3256 22.4711 20.5964 21.5338 21.5338C20.5964 22.4711 19.3256 22.9984 18 23ZM18 15C17.4067 15 16.8266 15.176 16.3333 15.5056C15.8399 15.8352 15.4554 16.3038 15.2284 16.852C15.0013 17.4001 14.9419 18.0033 15.0576 18.5853C15.1734 19.1672 15.4591 19.7018 15.8787 20.1213C16.2982 20.5409 16.8328 20.8266 17.4147 20.9424C17.9967 21.0581 18.5999 20.9987 19.1481 20.7716C19.6962 20.5446 20.1648 20.1601 20.4944 19.6667C20.8241 19.1734 21 18.5933 21 18C21 17.2044 20.6839 16.4413 20.1213 15.8787C19.5587 15.3161 18.7957 15 18 15Z" fill="#5A5A5A"/>
<path d="M10 13H2C1.73478 13 1.48043 13.1054 1.29289 13.2929C1.10536 13.4804 1 13.7348 1 14V22C1 22.2652 1.10536 22.5196 1.29289 22.7071C1.48043 22.8946 1.73478 23 2 23H10C10.2652 23 10.5196 22.8946 10.7071 22.7071C10.8946 22.5196 11 22.2652 11 22V14C11 13.7348 10.8946 13.4804 10.7071 13.2929C10.5196 13.1054 10.2652 13 10 13ZM9 21H3V15H9V21Z" fill="#5A5A5A"/>
<path d="M10 11H2C1.73478 11 1.48043 10.8946 1.29289 10.7071C1.10536 10.5196 1 10.2652 1 10V2C1 1.73478 1.10536 1.48043 1.29289 1.29289C1.48043 1.10536 1.73478 1 2 1H10C10.2652 1 10.5196 1.10536 10.7071 1.29289C10.8946 1.48043 11 1.73478 11 2V10C11 10.2652 10.8946 10.5196 10.7071 10.7071C10.5196 10.8946 10.2652 11 10 11ZM3 9H9V3H3V9Z" fill="#5A5A5A"/>
</svg>
