<svg width="24" height="24" viewBox="0 0 24 24" fill="none" xmlns="http://www.w3.org/2000/svg">
<rect x="0.5" y="0.5" width="23" height="23" rx="9.5" fill="white"/>
<path d="M17.9999 8.48667C17.9866 8.48667 17.9666 8.48667 17.9466 8.48667C14.4199 8.13334 10.8999 8 7.41328 8.35334L6.05328 8.48667C5.77328 8.51334 5.52661 8.31334 5.49994 8.03334C5.47328 7.75334 5.67328 7.51334 5.94661 7.48667L7.30661 7.35334C10.8533 6.99334 14.4466 7.13334 18.0466 7.48667C18.3199 7.51334 18.5199 7.76 18.4933 8.03334C18.4733 8.29334 18.2533 8.48667 17.9999 8.48667Z" fill="#D0342C"/>
<path d="M9.66675 7.81333C9.64009 7.81333 9.61342 7.81333 9.58009 7.80667C9.31342 7.76 9.12675 7.5 9.17342 7.23333L9.32009 6.36C9.42675 5.72 9.57342 4.83333 11.1268 4.83333H12.8734C14.4334 4.83333 14.5801 5.75333 14.6801 6.36667L14.8268 7.23333C14.8734 7.50667 14.6868 7.76667 14.4201 7.80667C14.1468 7.85333 13.8868 7.66667 13.8468 7.4L13.7001 6.53333C13.6068 5.95333 13.5868 5.84 12.8801 5.84H11.1334C10.4268 5.84 10.4134 5.93333 10.3134 6.52667L10.1601 7.39333C10.1201 7.64 9.90675 7.81333 9.66675 7.81333Z" fill="#D0342C"/>
<path d="M14.1401 19.1667H9.8601C7.53343 19.1667 7.4401 17.88 7.36676 16.84L6.93343 10.1267C6.91343 9.85333 7.12676 9.61333 7.4001 9.59333C7.6801 9.58 7.91343 9.78667 7.93343 10.06L8.36676 16.7733C8.4401 17.7867 8.46676 18.1667 9.8601 18.1667H14.1401C15.5401 18.1667 15.5668 17.7867 15.6334 16.7733L16.0668 10.06C16.0868 9.78667 16.3268 9.58 16.6001 9.59333C16.8734 9.61333 17.0868 9.84667 17.0668 10.1267L16.6334 16.84C16.5601 17.88 16.4668 19.1667 14.1401 19.1667Z" fill="#D0342C"/>
<path d="M13.1067 15.5H10.8867C10.6134 15.5 10.3867 15.2733 10.3867 15C10.3867 14.7267 10.6134 14.5 10.8867 14.5H13.1067C13.3801 14.5 13.6067 14.7267 13.6067 15C13.6067 15.2733 13.3801 15.5 13.1067 15.5Z" fill="#D0342C"/>
<path d="M13.6666 12.8333H10.3333C10.0599 12.8333 9.83325 12.6067 9.83325 12.3333C9.83325 12.06 10.0599 11.8333 10.3333 11.8333H13.6666C13.9399 11.8333 14.1666 12.06 14.1666 12.3333C14.1666 12.6067 13.9399 12.8333 13.6666 12.8333Z" fill="#D0342C"/>
<rect x="0.5" y="0.5" width="23" height="23" rx="9.5" stroke="#D0342C"/>
</svg>
