<svg width="24" height="24" viewBox="0 0 24 24" fill="none" xmlns="http://www.w3.org/2000/svg">
<rect x="0.5" y="0.5" width="23" height="23" rx="9.5" fill="white"/>
<path d="M11.3335 5.33331H10.0002C6.66683 5.33331 5.3335 6.66665 5.3335 9.99998V14C5.3335 17.3333 6.66683 18.6666 10.0002 18.6666H14.0002C17.3335 18.6666 18.6668 17.3333 18.6668 14V12.6666" stroke="#0071BD" stroke-linecap="round" stroke-linejoin="round"/>
<path d="M14.6933 6.01332L9.43992 11.2667C9.23992 11.4667 9.03992 11.86 8.99992 12.1467L8.71325 14.1533C8.60659 14.88 9.11992 15.3867 9.84659 15.2867L11.8533 15C12.1333 14.96 12.5266 14.76 12.7333 14.56L17.9866 9.30665C18.8933 8.39999 19.3199 7.34665 17.9866 6.01332C16.6533 4.67999 15.5999 5.10665 14.6933 6.01332Z" stroke="#0071BD" stroke-miterlimit="10" stroke-linecap="round" stroke-linejoin="round"/>
<path d="M13.9399 6.76666C14.3866 8.36 15.6333 9.60666 17.2333 10.06" stroke="#0071BD" stroke-miterlimit="10" stroke-linecap="round" stroke-linejoin="round"/>
<rect x="0.5" y="0.5" width="23" height="23" rx="9.5" stroke="#0071BD"/>
</svg>
