<svg width="197" height="197" viewBox="0 0 197 197" fill="none" xmlns="http://www.w3.org/2000/svg">
<g clip-path="url(#clip0_466_1180)">
<path d="M197 98.5C197 79.531 196.038 62.3705 193.191 52.4435C189.843 40.8236 186.188 30.2041 175.992 20.8158C163.833 9.6191 152.79 5.84839 136.784 2.73179C124.895 0.423198 111.043 -0.0769971 102.386 -0.0385206C99.8082 -0.0385206 97.2303 -0.0385206 94.6523 -0.0385206C85.9951 -0.0769971 72.1436 0.423198 60.2543 2.73179C44.2481 5.84839 33.2053 9.6191 21.0467 20.8158C10.8504 30.2041 7.19512 40.8236 3.84766 52.4435C0.961914 62.3705 0 79.531 0 98.4615V98.5V98.5384C0 117.469 0.961914 134.629 3.80918 144.556C7.15664 156.176 10.8119 166.796 21.0082 176.184C33.1668 187.381 44.2096 191.152 60.2158 194.268C74.0674 196.961 90.5353 197.192 98.3846 196.961L98.4615 197.038L98.5385 196.961C106.426 197.192 122.894 196.923 136.707 194.268C152.713 191.152 163.756 187.381 175.915 176.184C186.111 166.796 189.766 156.176 193.114 144.556C196.038 134.629 197 117.469 197 98.5Z" fill="url(#paint0_linear_466_1180)"/>
<path fill-rule="evenodd" clip-rule="evenodd" d="M113.961 60.4429C113.961 58.4724 115.558 56.875 117.529 56.875C130.008 56.875 140.125 66.9918 140.125 79.4714C140.125 81.4419 138.528 83.0393 136.557 83.0393C134.587 83.0393 132.989 81.4419 132.989 79.4714C132.989 70.9327 126.067 64.0107 117.529 64.0107C115.558 64.0107 113.961 62.4133 113.961 60.4429Z" fill="white"/>
<path fill-rule="evenodd" clip-rule="evenodd" d="M60.4429 113.961C62.4133 113.961 64.0107 115.558 64.0107 117.529C64.0107 126.067 70.9327 132.989 79.4714 132.989C81.4419 132.989 83.0393 134.587 83.0393 136.557C83.0393 138.528 81.4419 140.125 79.4714 140.125C66.9918 140.125 56.875 130.008 56.875 117.529C56.875 115.558 58.4724 113.961 60.4429 113.961Z" fill="white"/>
<path fill-rule="evenodd" clip-rule="evenodd" d="M56.875 79.4714C56.875 66.9918 66.9918 56.875 79.4714 56.875C81.4419 56.875 83.0393 58.4724 83.0393 60.4429C83.0393 62.4133 81.4419 64.0107 79.4714 64.0107C70.9327 64.0107 64.0107 70.9327 64.0107 79.4714C64.0107 81.4419 62.4133 83.0393 60.4429 83.0393C58.4724 83.0393 56.875 81.4419 56.875 79.4714Z" fill="white"/>
<path fill-rule="evenodd" clip-rule="evenodd" d="M136.557 113.961C138.528 113.961 140.125 115.558 140.125 117.529C140.125 130.008 130.008 140.125 117.529 140.125C115.558 140.125 113.961 138.528 113.961 136.557C113.961 134.587 115.558 132.989 117.529 132.989C126.067 132.989 132.989 126.067 132.989 117.529C132.989 115.558 134.587 113.961 136.557 113.961Z" fill="white"/>
<path fill-rule="evenodd" clip-rule="evenodd" d="M114.44 102.353C104.292 97.8427 92.7082 97.8427 82.5606 102.353L78.5419 104.139C76.7413 104.939 74.6328 104.128 73.8326 102.328C73.0323 100.527 73.8432 98.4185 75.6439 97.6179L79.6625 95.8322C91.6555 90.5019 105.345 90.5019 117.338 95.8322L121.356 97.6179C123.157 98.4185 123.968 100.527 123.168 102.328C122.367 104.128 120.259 104.939 118.458 104.139L114.44 102.353Z" fill="#666666"/>
</g>
<defs>
<linearGradient id="paint0_linear_466_1180" x1="0" y1="98.4988" x2="197" y2="98.4988" gradientUnits="userSpaceOnUse">
<stop stop-color="#D6D6D6"/>
<stop offset="1" stop-color="#BABABA"/>
</linearGradient>
<clipPath id="clip0_466_1180">
<rect width="197" height="197" fill="white"/>
</clipPath>
</defs>
</svg>
