<svg width="42" height="42" viewBox="0 0 42 42" fill="none" xmlns="http://www.w3.org/2000/svg">
<path d="M12.833 26.1054C12.472 26.4434 12.1078 26.0398 12.1078 26.0398C12.1078 26.0398 6.04406 19.6151 5.65031 19.3264C5.09578 18.9228 3.90797 18.2895 2.72015 19.5134C2.22468 20.022 1.4175 21.154 2.91703 22.9784C3.24187 23.3722 12.6886 33.3275 13.2398 33.8656C13.2398 33.8656 17.6039 38.1115 20.2453 39.7095C20.977 40.1525 21.8006 40.6217 22.762 40.9498C23.7202 41.2779 24.803 41.5043 25.9448 41.5043C27.0867 41.5175 28.2712 41.2976 29.3902 40.8875C30.5091 40.474 31.5525 39.8736 32.5008 39.1812C32.7337 39.004 32.97 38.8268 33.1898 38.6365L33.8264 38.1115C34.2694 37.7407 34.6828 37.3503 35.0798 36.9532C35.8772 36.1592 36.5958 35.3093 37.2291 34.4398C37.8591 33.567 38.3939 32.6647 38.8205 31.7656C39.247 30.8665 39.5456 29.9642 39.7261 29.1111C39.9164 28.2612 39.9689 27.4573 39.9394 26.7551C39.9328 26.0529 39.7917 25.4525 39.6769 24.9734C39.5456 24.4943 39.4045 24.1367 39.293 23.9004C39.1847 23.6642 39.1256 23.5395 39.1256 23.5395C38.9747 23.1162 38.8303 22.7126 38.7023 22.3484C38.3414 21.3214 37.9247 20.1697 37.4916 18.9851C37.3078 18.4831 37.2225 18.2567 37.2225 18.2567L37.2258 18.2665C35.6344 13.9451 33.9248 9.49246 33.9248 9.49246C33.6656 8.70824 32.7108 8.4359 32.0086 8.94121C29.9808 10.3981 29.3606 12.5243 30.0759 14.7917L31.9102 19.8186C32.1694 20.3797 31.4541 21.0293 30.975 20.6389C29.4689 19.4117 26.2828 16.0287 26.2828 16.0287C24.8587 14.6637 16.823 6.42449 16.2848 5.92246C15.202 4.91512 13.837 4.39668 12.7969 5.16121C11.7337 5.94215 11.4384 7.14965 12.4655 8.46871C12.7444 8.82637 20.8655 17.4068 20.8655 17.4068C21.338 17.9023 20.7802 18.6045 20.2584 18.1221C20.2584 18.1221 10.1555 7.58277 9.69937 7.09059C8.66578 5.9684 7.00547 5.72231 6.02109 6.64762C5.05968 7.54996 5.08265 9.02981 6.13265 10.1914C6.46734 10.5589 13.5844 18.0729 16.4325 21.1507C16.6228 21.3575 16.7705 21.6331 16.4883 21.8923C16.485 21.8956 16.1995 22.204 15.832 21.8103C15.0577 20.9834 7.32375 12.9247 6.8939 12.4882C5.90625 11.4842 4.58062 11.0084 3.51422 11.9862C2.54297 12.8754 2.38547 14.4275 3.50109 15.5234L12.8691 25.4262C12.8691 25.4262 13.1742 25.7872 12.833 26.1054Z" fill="#FAC036"/>
<path d="M28.0416 17.8496L28.8323 18.6962C28.8323 18.6962 24.3075 23.0635 27.3919 29.7704C27.3919 29.7704 27.7922 30.6202 27.2672 30.7613C27.2672 30.7613 26.8078 31.0173 26.2828 29.7113C26.2828 29.708 23.1689 23.3391 28.0416 17.8496Z" fill="#E48C15"/>
<path d="M20.7637 3.34668C20.7637 3.34668 22.6702 3.63543 24.4355 5.52543C26.2008 7.41871 27.0178 9.85012 27.0178 9.85012" stroke="#444444" stroke-width="2" stroke-miterlimit="10" stroke-linecap="round"/>
<path d="M25.41 1.14844C25.41 1.14844 27.008 1.95234 28.2417 3.9375C29.4755 5.92266 29.7741 8.21953 29.7741 8.21953" stroke="#444444" stroke-width="2" stroke-miterlimit="10" stroke-linecap="round"/>
<path d="M11.7173 36.3332C11.7173 36.3332 9.79453 36.4612 7.66499 34.9912C5.53546 33.5212 4.21312 31.3228 4.21312 31.3228" stroke="#444444" stroke-width="2" stroke-miterlimit="10" stroke-linecap="round"/>
<path d="M10.3458 39.5588C10.3458 39.5588 8.56079 39.6343 6.51329 38.5023C4.46579 37.3702 3.08766 35.5098 3.08766 35.5098" stroke="#444444" stroke-width="2" stroke-miterlimit="10" stroke-linecap="round"/>
</svg>
