<svg width="124" height="124" viewBox="0 0 124 124" fill="none" xmlns="http://www.w3.org/2000/svg">
<path d="M61.9455 21.3047C39.4861 21.3303 21.2844 39.5306 21.2588 61.9908C21.2645 67.6945 22.4794 73.3321 24.8269 78.5311C25.4817 79.9963 27.2014 80.6539 28.6666 79.9984C30.1318 79.3436 30.7887 77.6239 30.1332 76.1587C28.1213 71.7062 27.077 66.8769 27.072 61.9908C27.072 42.7305 42.6853 27.1165 61.9455 27.1165C81.2058 27.1165 96.8191 42.7305 96.8191 61.9908C96.8134 66.8769 95.7698 71.7055 93.7571 76.1587C93.1017 77.6239 93.7593 79.3429 95.2245 79.9984C96.6897 80.6539 98.4094 79.9963 99.0649 78.5311C101.412 73.3321 102.627 67.6945 102.632 61.9908C102.606 39.5306 84.4057 21.3303 61.9455 21.3047Z" fill="url(#paint0_linear_301_3996)"/>
<path d="M61.9454 3.86795C29.9177 3.79473 3.89586 29.6986 3.82192 61.7256C3.79562 73.4643 7.33174 84.9351 13.9632 94.6199C14.832 95.9686 16.6299 96.3581 17.9799 95.4887C19.3293 94.6199 19.7181 92.8213 18.8494 91.472C18.8195 91.4272 18.7897 91.3824 18.7577 91.339C12.8208 82.7035 9.63939 72.4712 9.63513 61.9908C9.63513 33.1003 33.055 9.67974 61.9454 9.67974C90.8359 9.67974 114.256 33.1003 114.256 61.9908C114.251 72.4712 111.069 82.7035 105.131 91.339C104.188 92.6379 104.476 94.4557 105.776 95.3977C107.075 96.3404 108.892 96.0525 109.835 94.7529C109.867 94.7095 109.896 94.6654 109.926 94.6199C128.019 68.1936 121.264 32.1022 94.8369 14.0085C85.1513 7.37706 73.6828 3.84094 61.9454 3.86795Z" fill="url(#paint1_linear_301_3996)"/>
<path d="M75.0869 81.1387C85.6797 73.8809 88.3819 59.4101 81.1241 48.8188C73.8656 38.2261 59.3955 35.5239 48.8034 42.781C38.2114 50.0388 35.5085 64.5096 42.767 75.1016C44.3886 77.4697 46.4361 79.5164 48.8034 81.1387C35.8313 85.5344 27.094 97.6982 27.0713 111.395V117.208C27.0713 118.813 28.3723 120.114 29.9775 120.114H93.9128C95.5181 120.114 96.8191 118.813 96.8191 117.208V111.395C96.797 97.6982 88.0598 85.5344 75.0869 81.1387ZM44.5088 61.9908C44.5088 52.3606 52.3154 44.554 61.9455 44.554C71.5757 44.554 79.3823 52.3606 79.3823 61.9908C79.3823 71.6209 71.5757 79.4275 61.9455 79.4275C52.3197 79.4169 44.5194 71.6166 44.5088 61.9908ZM91.0073 114.302H32.8838V111.396C32.9001 96.9567 44.6012 85.2564 59.0393 85.2407H64.8518C79.2899 85.2564 90.991 96.9567 91.0073 111.396V114.302Z" fill="url(#paint2_linear_301_3996)"/>
<defs>
<linearGradient id="paint0_linear_301_3996" x1="61.9452" y1="80.2523" x2="61.9452" y2="3.08828" gradientUnits="userSpaceOnUse">
<stop stop-color="#315CAD"/>
<stop offset="1" stop-color="#2EB9E8"/>
</linearGradient>
<linearGradient id="paint1_linear_301_3996" x1="61.9469" y1="95.9523" x2="61.9469" y2="-24.5889" gradientUnits="userSpaceOnUse">
<stop stop-color="#315CAD"/>
<stop offset="1" stop-color="#2EB9E8"/>
</linearGradient>
<linearGradient id="paint2_linear_301_3996" x1="61.9452" y1="120.114" x2="61.9452" y2="13.5523" gradientUnits="userSpaceOnUse">
<stop stop-color="#315CAD"/>
<stop offset="1" stop-color="#2EB9E8"/>
</linearGradient>
</defs>
</svg>
