<svg width="145" height="39" viewBox="0 0 145 39" fill="none" xmlns="http://www.w3.org/2000/svg">
<path fill-rule="evenodd" clip-rule="evenodd" d="M144.788 37.1822C143.051 38.8865 140.897 38.2577 138.931 38.0186C137.578 37.8542 137.599 36.453 137.598 35.3017C137.595 30.7526 137.642 26.2025 137.533 21.6565C137.441 17.8779 135.765 15.4934 133.079 14.9399C129.766 14.2581 127.201 15.8083 126.196 19.1931C125.196 22.5548 125.793 26.0175 125.675 29.4343C125.601 31.5777 125.649 33.7252 125.663 35.8706C125.672 37.4765 124.882 38.132 123.286 38.2206C118.769 38.4716 118.432 38.198 118.432 33.6973C118.431 23.6561 118.414 13.6144 118.451 3.57318C118.457 2.00752 117.731 -0.0441137 120.688 0.000722352C123.844 0.0481352 125.49 1.01752 125.616 3.59946C125.748 6.33755 125.646 9.08698 125.646 11.822C126.52 12.1894 126.747 11.4138 127.088 11.0634C132.132 5.87425 143.482 7.5909 144.405 15.7758C144.417 15.8809 144.655 15.9608 144.788 16.0526V37.1822Z" fill="#0479C1"/>
<path fill-rule="evenodd" clip-rule="evenodd" d="M25.653 22.1978C29.2583 23.7026 29.4403 26.8684 29.7086 29.9884C29.8115 31.1846 29.9149 32.3828 29.9661 33.582C30.1641 38.2063 30.1005 38.1573 25.5645 38.2439C23.1841 38.2893 22.2855 37.272 22.2483 35.0673C22.2147 33.095 22.1904 31.115 21.9949 29.1546C21.6925 26.1258 20.9593 25.5285 17.885 25.4471C14.2756 25.3518 13.0274 23.5501 14.1292 20.0822C14.5822 18.6562 15.7414 18.6098 16.852 18.7572C21.2659 19.3437 23.9209 13.7145 22.5373 9.90753C21.8078 7.89918 20.208 6.74633 17.9775 6.72159C15.1369 6.69067 12.2932 6.76952 9.4547 6.67624C7.89531 6.6247 7.57217 7.36475 7.58044 8.70675C7.60681 13.1687 7.58871 17.6317 7.53959 22.0937C7.50805 24.9766 6.93569 25.4332 3.66647 25.4162C0.624735 25.4007 0.0373805 24.907 0.0234205 22.1132C-0.00501657 16.3634 -0.011221 10.6131 0.0254886 4.86373C0.0472042 1.4433 1.47578 0.0585367 4.91718 0.0425606C9.56638 0.021431 14.2156 0.0456528 18.8648 0.0348303C23.606 0.0234924 28.022 0.930521 29.8322 5.94288C31.7633 11.2913 31.0746 16.417 27.1198 20.8197C26.7325 21.2511 26.2734 21.619 25.653 22.1978Z" fill="#0479C1"/>
<path fill-rule="evenodd" clip-rule="evenodd" d="M51.5647 20.025C50.9939 15.8686 49.237 14.004 46.2185 14.1653C43.2791 14.323 41.5036 16.4376 41.3687 20.025H51.5647ZM40.9334 25.4171C41.2203 28.2738 41.6991 30.6949 44.2527 31.7627C46.7929 32.8254 49.1439 32.1106 51.1092 30.1976C52.9017 28.4521 55.1384 28.9592 57.2267 29.1442C58.3327 29.2426 58.6548 30.2471 58.22 31.3329C57.5768 32.9398 56.7423 34.424 55.4967 35.6537C49.4805 41.5932 37.6734 39.1725 34.7987 31.2737C32.9291 26.1371 32.9446 20.815 34.6875 15.6264C36.4134 10.4898 40.726 7.89396 46.8327 7.99652C52.7833 8.09649 56.7159 10.8315 58.3999 16.0485C58.5054 16.3742 58.5778 16.7102 58.6667 17.0415C60.4479 23.6819 59.1232 25.4166 52.2746 25.4171H40.9334Z" fill="#0479C1"/>
<path fill-rule="evenodd" clip-rule="evenodd" d="M78.9738 23.5026C76.5204 24.2082 74.1027 24.8049 71.7575 25.6099C70.073 26.1882 69.1035 27.4425 69.2002 29.3519C69.2772 30.882 69.9225 32.0076 71.424 32.4724C74.2242 33.3393 77.5607 31.6561 78.5994 28.8933C79.2504 27.1622 79.2012 25.3827 78.9738 23.5026ZM86.2469 21.9323C86.1202 24.3262 86.1285 26.7365 85.8369 29.1107C85.3633 32.9641 83.3453 35.8253 79.6961 37.3477C75.945 38.9123 72.046 39.3478 68.1061 38.1924C64.4429 37.1178 62.2921 34.2303 62.0646 30.4089C61.7957 25.897 63.4828 22.8502 67.2034 21.2361C69.514 20.2327 72.0005 19.9941 74.4605 19.5921C76.3245 19.2875 78.6858 19.2638 78.8771 16.5943C78.9919 14.9992 76.7081 13.9737 73.8297 14.2159C72.9901 14.287 71.8743 14.3174 71.3924 14.8359C69.4861 16.887 67.0984 16.1454 64.8643 16.2077C63.3789 16.249 62.9135 15.4832 63.4404 14.0226C64.5686 10.8985 66.8746 9.13962 69.9923 8.45059C73.3106 7.71827 76.6605 7.82649 79.9437 8.75671C84.0407 9.91781 85.8121 12.0565 86.0841 16.2717C86.205 18.1491 86.1042 20.041 86.1042 21.9261C86.1523 21.9282 86.1999 21.9303 86.2469 21.9323Z" fill="#0479C1"/>
<path fill-rule="evenodd" clip-rule="evenodd" d="M89.3513 22.6314C89.3813 22.0567 89.3787 20.8503 89.5147 19.6598C90.6268 9.97109 100.455 4.86132 109.173 9.43563C111.571 10.6931 113.116 12.6891 114.037 15.2009C114.608 16.7578 114.354 17.7241 112.423 17.6659C109.769 17.586 107.23 18.073 104.963 15.5565C102.972 13.3467 98.9237 14.6557 97.7051 17.5659C96.1224 21.3476 96.155 25.2684 97.6193 29.0934C98.5349 31.4862 100.495 32.4133 102.996 32.1443C105.31 31.8949 106.363 30.3818 106.818 28.2451C107.349 25.7534 111.932 24.1805 114.011 25.7354C114.725 26.2687 114.738 27.0227 114.722 27.8205C114.603 33.7296 110.068 38.4518 104.177 38.7806C94.272 39.3336 89.3653 34.196 89.3513 22.6314Z" fill="#0479C1"/>
</svg>
