<svg width="28" height="34" viewBox="0 0 28 34" fill="none" xmlns="http://www.w3.org/2000/svg">
<path d="M27.9931 9.73691C28.0276 7.57889 27.4233 5.45989 26.258 3.65334C25.8149 3.01192 25.2701 2.44925 24.6456 1.98819C22.4867 0.40713 19.6461 0.0823975 17.0634 0.0823975H3.58496C2.63501 0.085132 1.7247 0.468778 1.05298 1.14953C0.381256 1.83027 0.00269832 2.75279 0 3.7155V20.528C0 21.0832 0.217629 21.6157 0.605029 22.0083C0.992429 22.4009 1.51786 22.6215 2.06573 22.6215H4.76096C5.25368 22.621 5.72987 22.4414 6.10307 22.1154C6.47627 21.7893 6.72178 21.3385 6.79493 20.8447L6.82669 6.7959C6.82654 6.68501 6.848 6.57517 6.8898 6.47269C6.9316 6.37022 6.99295 6.2771 7.07032 6.19869C7.1477 6.12028 7.23954 6.0581 7.34066 6.01574C7.44178 5.97337 7.55019 5.95166 7.65961 5.95181H16.2759C16.8928 5.9481 17.504 6.07048 18.0731 6.31167C18.6421 6.55287 19.1574 6.90793 19.5879 7.35557C20.0185 7.80321 20.3555 8.33424 20.5789 8.91694C20.8023 9.49963 20.9074 10.122 20.888 10.7468C20.7551 13.7961 18.9563 16.7475 15.8373 16.7475H14.0943C13.7579 16.7475 13.4354 16.8829 13.1976 17.1239C12.9598 17.3649 12.8262 17.6918 12.8262 18.0326V21.3848C12.8277 21.7263 12.9627 22.0533 13.2017 22.2942C13.4406 22.5351 13.7641 22.6702 14.1011 22.6699C18.1212 22.6699 19.8143 22.078 20.0585 26.1556C20.018 28.068 20.1163 29.9809 20.3528 31.8787C20.3676 32.0825 20.3904 32.2875 20.4244 32.4902C20.4939 32.8902 20.7002 33.2526 21.0071 33.5137C21.3141 33.7748 21.702 33.918 22.1027 33.9181H25.6535C25.8872 33.9176 26.1183 33.8684 26.3324 33.7736C26.5465 33.6788 26.739 33.5403 26.8981 33.3669C27.0572 33.1935 27.1794 32.9887 27.2572 32.7654C27.3349 32.5421 27.3665 32.3049 27.35 32.0687C27.3409 31.9387 27.333 31.8086 27.3261 31.6784L27.0318 26.9478C27.012 25.2206 26.6619 23.5136 26.0012 21.9213C25.2219 20.8053 24.0994 19.9828 22.8095 19.5826C23.3867 19.7841 24.6707 18.5462 25.0138 18.1881C27.0207 15.8512 28.0845 12.8335 27.9931 9.73691Z" fill="#0177C0"/>
</svg>
