<svg width="24" height="24" viewBox="0 0 24 24" fill="none" xmlns="http://www.w3.org/2000/svg">
<path d="M2.22222 17.0436C4.05076 20.5819 7.74261 23 12 23C18.0751 23 23 18.0751 23 12C23 5.92487 18.0751 1 12 1C5.92487 1 1 5.92487 1 12C1 13.1826 1.18651 14.3221 1.53195 15.3896" stroke="black" stroke-width="0.5" stroke-miterlimit="10" stroke-linecap="round" stroke-linejoin="round"/>
<path d="M14.5476 11.8044L16.7245 9.62755C17.0918 9.26026 17.0918 8.6647 16.7245 8.29741L15.507 7.07991C15.1397 6.71262 14.5442 6.71262 14.1769 7.07991L12 9.25681L9.8231 7.07991C9.4558 6.71262 8.8603 6.71262 8.49295 7.07991L7.27551 8.29741C6.90816 8.6647 6.90816 9.26026 7.27551 9.62755L9.4524 11.8044L7.27551 13.9813C6.90816 14.3486 6.90816 14.9442 7.27551 15.3115L8.49295 16.529C8.8603 16.8963 9.4558 16.8963 9.8231 16.529L12 14.3521L14.1769 16.529C14.5442 16.8963 15.1397 16.8963 15.507 16.529L16.7245 15.3115C17.0918 14.9442 17.0918 14.3486 16.7245 13.9813L14.5476 11.8044Z" stroke="black" stroke-width="0.5" stroke-miterlimit="10" stroke-linecap="round" stroke-linejoin="round"/>
</svg>
