<svg width="197" height="197" viewBox="0 0 197 197" fill="none" xmlns="http://www.w3.org/2000/svg">
<g clip-path="url(#clip0_469_755)">
<path d="M197 98.5C197 79.531 196.038 62.3705 193.191 52.4435C189.843 40.8236 186.188 30.2041 175.992 20.8158C163.833 9.6191 152.79 5.84839 136.784 2.73179C124.895 0.423198 111.043 -0.0769971 102.386 -0.0385206C99.8082 -0.0385206 97.2303 -0.0385206 94.6523 -0.0385206C85.9951 -0.0769971 72.1436 0.423198 60.2543 2.73179C44.2481 5.84839 33.2053 9.6191 21.0467 20.8158C10.8504 30.2041 7.19512 40.8236 3.84766 52.4435C0.961914 62.3705 0 79.531 0 98.4615V98.5V98.5384C0 117.469 0.961914 134.629 3.80918 144.556C7.15664 156.176 10.8119 166.796 21.0082 176.184C33.1668 187.381 44.2096 191.152 60.2158 194.268C74.0674 196.961 90.5353 197.192 98.3846 196.961L98.4615 197.038L98.5385 196.961C106.426 197.192 122.894 196.923 136.707 194.268C152.713 191.152 163.756 187.381 175.915 176.184C186.111 166.796 189.766 156.176 193.114 144.556C196.038 134.629 197 117.469 197 98.5Z" fill="url(#paint0_linear_469_755)"/>
<path d="M132.167 61.6772H64.8334C58.4419 61.6772 53.2605 66.8586 53.2605 73.2502V127.958C53.2605 134.35 58.4419 139.531 64.8334 139.531H132.167C138.558 139.531 143.74 134.35 143.74 127.958V73.2502C143.74 66.8586 138.558 61.6772 132.167 61.6772Z" fill="#F5F5F5"/>
<path d="M143.74 73.2502V89.0314H53.2605V73.2502C53.2596 71.7301 53.5584 70.2249 54.1397 68.8204C54.7209 67.4159 55.5734 66.1397 56.6482 65.0649C57.723 63.9901 58.9991 63.1377 60.4036 62.5564C61.8081 61.9751 63.3134 61.6764 64.8334 61.6772H132.167C133.687 61.6764 135.192 61.9751 136.597 62.5564C138.001 63.1377 139.277 63.9901 140.352 65.0649C141.427 66.1397 142.279 67.4159 142.861 68.8204C143.442 70.2249 143.741 71.7301 143.74 73.2502Z" fill="#F2423E"/>
<path d="M109.021 124.802C108.606 124.803 108.196 124.721 107.813 124.563C107.43 124.404 107.082 124.171 106.789 123.878L85.7478 102.836C85.1595 102.243 84.83 101.442 84.8315 100.607C84.8331 99.7717 85.1654 98.9713 85.7559 98.3809C86.3463 97.7904 87.1467 97.4581 87.9817 97.4565C88.8167 97.455 89.6183 97.7845 90.2109 98.3728L111.253 119.414C111.694 119.856 111.994 120.418 112.116 121.03C112.238 121.643 112.175 122.277 111.937 122.854C111.698 123.43 111.293 123.923 110.774 124.27C110.255 124.617 109.645 124.802 109.021 124.802Z" fill="#F2423E"/>
<path d="M87.9792 124.802C87.3551 124.802 86.7449 124.617 86.226 124.27C85.707 123.923 85.3026 123.43 85.0637 122.854C84.8249 122.277 84.7624 121.643 84.8841 121.03C85.0058 120.418 85.3064 119.856 85.7477 119.414L106.789 98.3728C107.382 97.7845 108.184 97.455 109.019 97.4565C109.854 97.4581 110.654 97.7904 111.244 98.3809C111.835 98.9713 112.167 99.7717 112.169 100.607C112.17 101.442 111.841 102.243 111.252 102.836L90.2108 123.878C89.9181 124.171 89.5703 124.404 89.1873 124.563C88.8043 124.721 88.3938 124.803 87.9792 124.802Z" fill="#F2423E"/>
<path d="M77.4585 79.5625C80.9448 79.5625 83.771 76.7363 83.771 73.25C83.771 69.7637 80.9448 66.9375 77.4585 66.9375C73.9722 66.9375 71.146 69.7637 71.146 73.25C71.146 76.7363 73.9722 79.5625 77.4585 79.5625Z" fill="white"/>
<path d="M98.5002 79.5625C101.987 79.5625 104.813 76.7363 104.813 73.25C104.813 69.7637 101.987 66.9375 98.5002 66.9375C95.0139 66.9375 92.1877 69.7637 92.1877 73.25C92.1877 76.7363 95.0139 79.5625 98.5002 79.5625Z" fill="white"/>
<path d="M119.542 79.5625C123.028 79.5625 125.854 76.7363 125.854 73.25C125.854 69.7637 123.028 66.9375 119.542 66.9375C116.055 66.9375 113.229 69.7637 113.229 73.25C113.229 76.7363 116.055 79.5625 119.542 79.5625Z" fill="white"/>
<path d="M77.4585 76.4062C76.6215 76.406 75.8188 76.0734 75.2269 75.4816C74.6351 74.8897 74.3025 74.087 74.3022 73.25V60.625C74.3022 59.7879 74.6348 58.9851 75.2267 58.3932C75.8186 57.8013 76.6214 57.4688 77.4585 57.4688C78.2956 57.4688 79.0984 57.8013 79.6903 58.3932C80.2822 58.9851 80.6147 59.7879 80.6147 60.625V73.25C80.6145 74.087 80.2819 74.8897 79.6901 75.4816C79.0982 76.0734 78.2955 76.406 77.4585 76.4062Z" fill="#A2A2A2"/>
<path d="M98.5002 76.4062C97.6632 76.406 96.8605 76.0734 96.2687 75.4816C95.6768 74.8897 95.3442 74.087 95.344 73.25V60.625C95.344 59.7879 95.6765 58.9851 96.2684 58.3932C96.8604 57.8013 97.6632 57.4688 98.5002 57.4688C99.3373 57.4688 100.14 57.8013 100.732 58.3932C101.324 58.9851 101.656 59.7879 101.656 60.625V73.25C101.656 74.087 101.324 74.8897 100.732 75.4816C100.14 76.0734 99.3373 76.406 98.5002 76.4062Z" fill="#A2A2A2"/>
<path d="M119.542 76.4062C118.705 76.406 117.902 76.0734 117.31 75.4816C116.718 74.8897 116.386 74.087 116.385 73.25V60.625C116.385 59.7879 116.718 58.9851 117.31 58.3932C117.902 57.8013 118.705 57.4688 119.542 57.4688C120.379 57.4688 121.182 57.8013 121.774 58.3932C122.365 58.9851 122.698 59.7879 122.698 60.625V73.25C122.698 74.087 122.365 74.8897 121.773 75.4816C121.181 76.0734 120.379 76.406 119.542 76.4062Z" fill="#A2A2A2"/>
</g>
<defs>
<linearGradient id="paint0_linear_469_755" x1="0" y1="98.4988" x2="197" y2="98.4988" gradientUnits="userSpaceOnUse">
<stop stop-color="#D6D6D6"/>
<stop offset="1" stop-color="#BABABA"/>
</linearGradient>
<clipPath id="clip0_469_755">
<rect width="197" height="197" fill="white"/>
</clipPath>
</defs>
</svg>
