<svg width="24" height="24" viewBox="0 0 24 24" fill="none" xmlns="http://www.w3.org/2000/svg">
<g clip-path="url(#clip0_490_993)">
<path d="M10.1286 2.02152V1.77482C10.1286 1.741 10.122 1.70751 10.109 1.67627C10.0961 1.64502 10.0771 1.61663 10.0532 1.59272C10.0293 1.5688 10.0009 1.54983 9.96969 1.53689C9.93845 1.52395 9.90497 1.51729 9.87115 1.51729H8.10298C8.03469 1.51729 7.9692 1.49016 7.92091 1.44187C7.87262 1.39358 7.84549 1.32809 7.84549 1.2598V1.02515C7.84549 0.95677 7.81833 0.891195 7.76998 0.842845C7.72163 0.794496 7.65606 0.767334 7.58768 0.767334H7.35612C7.28783 0.767334 7.22234 0.794462 7.17405 0.842749C7.12576 0.891037 7.09863 0.956529 7.09863 1.02482V2.03024C7.09863 2.09853 7.12576 2.16403 7.17405 2.21233C7.22233 2.26062 7.28782 2.28776 7.35612 2.28777H8.35854C8.42683 2.28777 8.49232 2.3149 8.54061 2.36319C8.5889 2.41147 8.61602 2.47697 8.61602 2.54526V2.77813C8.616 2.81196 8.62264 2.84546 8.63558 2.87672C8.64851 2.90798 8.66748 2.93638 8.6914 2.9603C8.71531 2.98423 8.74371 3.0032 8.77497 3.01614C8.80623 3.02908 8.83973 3.03573 8.87356 3.03571H9.12026C9.18859 3.03571 9.25413 3.00858 9.30248 2.96028C9.35082 2.91198 9.37801 2.84647 9.37807 2.77813V2.53654C9.37807 2.46825 9.4052 2.40276 9.45349 2.35447C9.50177 2.30618 9.56727 2.27905 9.63556 2.27905H9.87096C9.93924 2.27898 10.0047 2.25182 10.053 2.20354C10.1013 2.15526 10.1284 2.0898 10.1285 2.02152H10.1286Z" fill="black"/>
<path d="M7.24932 7.59963H8.44497C8.48783 7.59963 8.52894 7.5826 8.55925 7.55229C8.58956 7.52198 8.60659 7.48087 8.60659 7.438V7.00703C8.60659 6.96417 8.58956 6.92306 8.55925 6.89275C8.52894 6.86243 8.48783 6.84541 8.44497 6.84541H8.00851C7.98729 6.84541 7.96627 6.84123 7.94666 6.8331C7.92705 6.82498 7.90923 6.81308 7.89423 6.79807C7.87922 6.78306 7.86731 6.76524 7.85919 6.74563C7.85107 6.72602 7.84689 6.70501 7.84689 6.68378V6.24484C7.84689 6.20194 7.82985 6.16079 7.79953 6.13044C7.7692 6.10009 7.72807 6.08302 7.68517 6.08298H6.4892C6.44633 6.08298 6.40522 6.06596 6.37491 6.03565C6.3446 6.00533 6.32757 5.96422 6.32757 5.92136V4.73584C6.32757 4.71462 6.32339 4.6936 6.31527 4.67399C6.30715 4.65438 6.29524 4.63657 6.28024 4.62156C6.26523 4.60655 6.24741 4.59464 6.2278 4.58652C6.20819 4.5784 6.18717 4.57422 6.16595 4.57422H5.72659C5.68369 4.57423 5.64255 4.59127 5.6122 4.62159C5.58185 4.65191 5.56478 4.69304 5.56473 4.73594V5.92811C5.56476 5.94932 5.56061 5.97032 5.55251 5.98992C5.54441 6.00952 5.53253 6.02733 5.51754 6.04233C5.50254 6.05733 5.48474 6.06923 5.46515 6.07734C5.44555 6.08545 5.42455 6.08961 5.40334 6.08959H4.9795C4.93663 6.08959 4.89552 6.10662 4.86521 6.13693C4.8349 6.16724 4.81787 6.20835 4.81787 6.25122V7.43978C4.81792 7.48269 4.83499 7.52383 4.86533 7.55418C4.89568 7.58452 4.93682 7.60159 4.97973 7.60164H5.41098C5.45385 7.60164 5.49496 7.58461 5.52527 7.5543C5.55558 7.52399 5.57261 7.48288 5.57261 7.44002V7.01458C5.57259 6.99336 5.57676 6.97234 5.58488 6.95274C5.593 6.93313 5.6049 6.91532 5.61991 6.90031C5.63491 6.88531 5.65273 6.87341 5.67234 6.8653C5.69195 6.85719 5.71296 6.85303 5.73418 6.85305H6.92617C6.969 6.85306 7.01008 6.87008 7.04037 6.90037C7.07066 6.93066 7.08769 6.97174 7.0877 7.01458V7.438C7.0877 7.48087 7.10473 7.52198 7.13504 7.55229C7.16535 7.5826 7.20646 7.59962 7.24932 7.59963Z" fill="black"/>
<path d="M7.37133 10.6429H7.57041C7.64351 10.6429 7.71361 10.6138 7.76529 10.5621C7.81697 10.5104 7.846 10.4403 7.84598 10.3672V10.1728C7.84596 10.0997 7.81692 10.0296 7.76524 9.97796C7.71357 9.92628 7.64349 9.89724 7.57041 9.89722H7.37114C7.30296 9.89723 7.2372 9.92252 7.18659 9.9682C7.13597 10.0139 7.10409 10.0767 7.09711 10.1445C7.09617 10.1539 7.0957 10.1633 7.0957 10.1727V10.367C7.0957 10.3764 7.09617 10.3858 7.09711 10.3952C7.10399 10.4631 7.13585 10.5261 7.18652 10.5718C7.23719 10.6176 7.30305 10.6429 7.37133 10.6429Z" fill="black"/>
<path d="M2.78336 3.80405H6.07244C6.14073 3.80405 6.20622 3.77692 6.25451 3.72863C6.3028 3.68034 6.32993 3.61485 6.32993 3.54656V0.257484C6.32993 0.189195 6.3028 0.123703 6.25451 0.0754154C6.20622 0.0271277 6.14073 0 6.07244 0L2.78336 0C2.71507 0 2.64958 0.0271277 2.60129 0.0754154C2.55301 0.123703 2.52588 0.189195 2.52588 0.257484V3.54656C2.52588 3.61485 2.55301 3.68034 2.60129 3.72863C2.64958 3.77692 2.71507 3.80405 2.78336 3.80405ZM3.29519 1.02323C3.29519 0.989417 3.30185 0.955931 3.3148 0.924688C3.32774 0.893446 3.34671 0.865059 3.37062 0.841149C3.39454 0.817239 3.42293 0.798273 3.45417 0.785336C3.48542 0.772399 3.51891 0.765744 3.55272 0.76575H5.30519C5.33901 0.765744 5.3725 0.772399 5.40374 0.785336C5.43499 0.798273 5.46338 0.817239 5.48729 0.841149C5.5112 0.865059 5.53018 0.893446 5.54312 0.924688C5.55606 0.955931 5.56272 0.989417 5.56272 1.02323V2.77636C5.56272 2.81018 5.55606 2.84366 5.54312 2.8749C5.53018 2.90615 5.5112 2.93453 5.48729 2.95844C5.46338 2.98235 5.43499 3.00132 5.40374 3.01426C5.3725 3.02719 5.33901 3.03385 5.30519 3.03384H3.55263C3.51882 3.03384 3.48533 3.02717 3.4541 3.01423C3.42286 3.00128 3.39448 2.98231 3.37057 2.9584C3.34667 2.93448 3.32771 2.90609 3.31477 2.87485C3.30184 2.84361 3.29519 2.81013 3.29519 2.77631V1.02323Z" fill="black"/>
<path d="M11.1526 2.86022H11.4068C11.4751 2.86022 11.5406 2.83309 11.5889 2.78479C11.6372 2.73649 11.6643 2.67099 11.6643 2.60269V1.02375C11.6643 0.989933 11.6709 0.956445 11.6839 0.925201C11.6968 0.893956 11.7158 0.865565 11.7397 0.841651C11.7636 0.817736 11.792 0.798766 11.8232 0.785823C11.8545 0.77288 11.888 0.766219 11.9218 0.766219H13.6744C13.7082 0.766219 13.7417 0.77288 13.7729 0.785823C13.8042 0.798766 13.8326 0.817736 13.8565 0.841651C13.8804 0.865565 13.8993 0.893956 13.9123 0.925201C13.9252 0.956445 13.9319 0.989933 13.9319 1.02375V2.60269C13.9319 2.67099 13.959 2.73649 14.0073 2.78479C14.0556 2.83309 14.1211 2.86022 14.1894 2.86022H14.4416C14.5099 2.86021 14.5754 2.83307 14.6237 2.78477C14.672 2.73648 14.6991 2.67098 14.6991 2.60269V0.257484C14.6991 0.223671 14.6925 0.190189 14.6795 0.158949C14.6666 0.12771 14.6476 0.0993251 14.6237 0.0754154C14.5998 0.0515058 14.5714 0.0325396 14.5402 0.0195998C14.5089 0.00666003 14.4754 4.26719e-09 14.4416 4.26719e-09H11.1526C11.1187 -6.15216e-06 11.0852 0.00664934 11.054 0.0195864C11.0228 0.0325234 10.9944 0.0514886 10.9705 0.0753988C10.9465 0.0993091 10.9276 0.127696 10.9146 0.158939C10.9017 0.190181 10.895 0.223667 10.895 0.257484V2.60269C10.895 2.67099 10.9222 2.73649 10.9704 2.78479C11.0187 2.83309 11.0842 2.86022 11.1526 2.86022Z" fill="black"/>
<path d="M6.04647 8.3689H2.80132C2.72826 8.36891 2.6582 8.39794 2.60655 8.4496C2.5549 8.50126 2.52588 8.57133 2.52588 8.64438V11.898C2.52588 11.9711 2.5549 12.0411 2.60655 12.0928C2.6582 12.1445 2.72826 12.1735 2.80132 12.1735H6.04647C6.11953 12.1735 6.18959 12.1445 6.24124 12.0928C6.29289 12.0411 6.32191 11.9711 6.32191 11.898V8.64438C6.32191 8.57133 6.29289 8.50126 6.24124 8.4496C6.18959 8.39794 6.11953 8.36891 6.04647 8.3689ZM5.56366 11.1308C5.56366 11.2038 5.53464 11.2739 5.48299 11.3256C5.43134 11.3772 5.36128 11.4062 5.28822 11.4063H3.57175C3.4987 11.4062 3.42864 11.3772 3.37699 11.3256C3.32533 11.2739 3.29632 11.2038 3.29632 11.1308V9.4136C3.29632 9.34055 3.32534 9.27049 3.37699 9.21884C3.42864 9.16718 3.4987 9.13816 3.57175 9.13816H5.28846C5.36151 9.13816 5.43157 9.16718 5.48322 9.21884C5.53487 9.27049 5.56389 9.34055 5.56389 9.4136L5.56366 11.1308Z" fill="black"/>
<path d="M2.68741 7.60812H3.12775C3.17062 7.60812 3.21173 7.59109 3.24204 7.56078C3.27235 7.53047 3.28938 7.48936 3.28938 7.4465V7.0077C3.28938 6.96484 3.30641 6.92373 3.33672 6.89341C3.36703 6.8631 3.40814 6.84608 3.451 6.84608H3.87714C3.92001 6.84608 3.96112 6.82905 3.99143 6.79874C4.02174 6.76843 4.03877 6.72732 4.03877 6.68445V6.24537C4.03877 6.20251 4.02174 6.1614 3.99143 6.13109C3.96112 6.10078 3.92001 6.08375 3.87714 6.08375H3.44669C3.40383 6.08375 3.36272 6.06672 3.33241 6.03641C3.30209 6.0061 3.28507 5.96499 3.28507 5.92212V4.72681C3.28507 4.68395 3.26804 4.64283 3.23773 4.61252C3.20742 4.58221 3.16631 4.56519 3.12344 4.56519H2.6875C2.64464 4.56519 2.60353 4.58221 2.57322 4.61252C2.54291 4.64283 2.52588 4.68395 2.52588 4.72681V7.44687C2.52598 7.48966 2.54304 7.53066 2.57332 7.56088C2.6036 7.59111 2.64463 7.6081 2.68741 7.60812Z" fill="black"/>
<path d="M9.87648 0H8.86979C8.72758 0 8.6123 0.11528 8.6123 0.257484V0.495422C8.6123 0.637627 8.72758 0.752906 8.86979 0.752906H9.87648C10.0187 0.752906 10.134 0.637627 10.134 0.495422V0.257484C10.134 0.11528 10.0187 0 9.87648 0Z" fill="black"/>
<path d="M9.03712 8.37793H7.37216C7.33599 8.37793 7.30016 8.38506 7.26674 8.3989C7.23332 8.41274 7.20295 8.43304 7.17737 8.45862C7.15179 8.4842 7.13149 8.51457 7.11765 8.54799C7.10381 8.58141 7.09668 8.61724 7.09668 8.65341V8.85666C7.09668 8.92973 7.1257 8.9998 7.17737 9.05146C7.22903 9.10312 7.2991 9.13215 7.37216 9.13215H8.32809C8.40114 9.13215 8.4712 9.16117 8.52287 9.21282C8.57453 9.26447 8.60356 9.33453 8.60357 9.40759V11.1403C8.60356 11.2134 8.57453 11.2834 8.52287 11.3351C8.4712 11.3867 8.40114 11.4158 8.32809 11.4158H7.37366C7.33749 11.4158 7.30166 11.4229 7.26824 11.4367C7.23482 11.4506 7.20445 11.4709 7.17887 11.4964C7.15329 11.522 7.13299 11.5524 7.11915 11.5858C7.10531 11.6192 7.09818 11.6551 7.09818 11.6912V11.889C7.09818 11.9251 7.10531 11.961 7.11915 11.9944C7.13299 12.0278 7.15329 12.0582 7.17887 12.0838C7.20445 12.1093 7.23482 12.1296 7.26824 12.1435C7.30166 12.1573 7.33749 12.1644 7.37366 12.1644H9.03712C9.11018 12.1644 9.18025 12.1354 9.23191 12.0838C9.28358 12.0321 9.3126 11.962 9.3126 11.889V8.65341C9.3126 8.58035 9.28358 8.51028 9.23191 8.45862C9.18025 8.40695 9.11018 8.37793 9.03712 8.37793Z" fill="black"/>
<path d="M9.15089 4.56177H7.26075C7.17148 4.56177 7.09912 4.63413 7.09912 4.72339V5.15835C7.09912 5.24761 7.17148 5.31997 7.26075 5.31997H9.15089C9.24015 5.31997 9.31251 5.24761 9.31251 5.15835V4.72339C9.31251 4.63413 9.24015 4.56177 9.15089 4.56177Z" fill="#0071BD"/>
<path d="M7.35695 3.79459H7.58795C7.65633 3.79459 7.72191 3.76743 7.77025 3.71908C7.8186 3.67073 7.84577 3.60515 7.84577 3.53678V3.30582C7.84577 3.23754 7.81864 3.17204 7.77035 3.12376C7.72206 3.07547 7.65657 3.04834 7.58828 3.04834H7.35709C7.28881 3.04834 7.22331 3.07547 7.17503 3.12376C7.12674 3.17204 7.09961 3.23754 7.09961 3.30582V3.53701C7.09955 3.57086 7.10618 3.60439 7.11909 3.63567C7.13201 3.66696 7.15098 3.69539 7.1749 3.71934C7.19882 3.74328 7.22723 3.76228 7.2585 3.77523C7.28977 3.78818 7.32329 3.79484 7.35714 3.79482L7.35695 3.79459Z" fill="black"/>
<path d="M4.64097 4.57153H4.2168C4.12754 4.57153 4.05518 4.6439 4.05518 4.73316V5.15522C4.05518 5.24448 4.12754 5.31685 4.2168 5.31685H4.64097C4.73024 5.31685 4.8026 5.24448 4.8026 5.15522V4.73316C4.8026 4.6439 4.73024 4.57153 4.64097 4.57153Z" fill="black"/>
<path d="M4.31075 2.27571H4.54241C4.61079 2.27571 4.67636 2.24855 4.72471 2.2002C4.77306 2.15185 4.80022 2.08627 4.80022 2.0179V1.78418C4.80022 1.7158 4.77306 1.65023 4.72471 1.60188C4.67636 1.55353 4.61079 1.52637 4.54241 1.52637H4.31075C4.27694 1.52636 4.24345 1.53302 4.2122 1.54595C4.18096 1.55889 4.15257 1.57786 4.12865 1.60177C4.10474 1.62568 4.08577 1.65406 4.07283 1.68531C4.05988 1.71655 4.05322 1.75003 4.05322 1.78385V2.01823C4.05324 2.08652 4.08037 2.15201 4.12867 2.2003C4.17696 2.24858 4.24246 2.27571 4.31075 2.27571Z" fill="black"/>
<path d="M12.9137 1.5271H12.6823C12.5401 1.5271 12.4248 1.64238 12.4248 1.78458V2.01568C12.4248 2.15788 12.5401 2.27316 12.6823 2.27316H12.9137C13.0559 2.27316 13.1712 2.15788 13.1712 2.01568V1.78458C13.1712 1.64238 13.0559 1.5271 12.9137 1.5271Z" fill="black"/>
<path d="M4.53051 9.90063H4.3311C4.17898 9.90063 4.05566 10.024 4.05566 10.1761V10.367C4.05566 10.5192 4.17898 10.6425 4.3311 10.6425H4.53051C4.68263 10.6425 4.80595 10.5192 4.80595 10.367V10.1761C4.80595 10.024 4.68263 9.90063 4.53051 9.90063Z" fill="black"/>
<path d="M19.5664 3.51611H12.0055C11.4996 3.51665 11.0147 3.71782 10.657 4.07549C10.2994 4.43316 10.0982 4.91811 10.0977 5.42393V22.0921C10.0982 22.5979 10.2993 23.0828 10.657 23.4405C11.0147 23.7982 11.4996 23.9994 12.0055 23.9999H19.5664C20.0722 23.9993 20.5572 23.7982 20.9148 23.4405C21.2725 23.0828 21.4737 22.5979 21.4742 22.0921V5.42379C21.4736 4.91799 21.2724 4.43309 20.9148 4.07545C20.5571 3.71782 20.0722 3.51666 19.5664 3.51611ZM20.7106 22.0922C20.7103 22.3956 20.5896 22.6864 20.3751 22.9009C20.1606 23.1155 19.8698 23.2361 19.5664 23.2365H12.0055C11.702 23.2362 11.4111 23.1155 11.1965 22.901C10.9819 22.6864 10.8613 22.3955 10.861 22.0921V5.42379C10.8613 5.12041 10.982 4.82957 11.1965 4.61505C11.411 4.40054 11.7019 4.27989 12.0052 4.27957H19.5664C19.8698 4.2799 20.1606 4.40056 20.3751 4.61507C20.5896 4.82958 20.7103 5.12042 20.7106 5.42379V22.0922Z" fill="black"/>
<path d="M16.2614 21.896H15.3098C15.2593 21.8955 15.2092 21.9049 15.1624 21.9239C15.1156 21.9428 15.073 21.9708 15.0371 22.0063C15.0012 22.0418 14.9727 22.0841 14.9533 22.1307C14.9338 22.1773 14.9238 22.2273 14.9238 22.2777C14.9238 22.3282 14.9338 22.3782 14.9533 22.4248C14.9727 22.4714 15.0012 22.5137 15.0371 22.5492C15.073 22.5847 15.1156 22.6127 15.1624 22.6316C15.2092 22.6506 15.2593 22.66 15.3098 22.6595H16.2614C16.3619 22.6584 16.4579 22.6177 16.5286 22.5462C16.5992 22.4747 16.6389 22.3783 16.6389 22.2777C16.6389 22.1772 16.5992 22.0808 16.5286 22.0093C16.4579 21.9378 16.3619 21.8971 16.2614 21.896Z" fill="#0071BD"/>
<path d="M17.7453 5.02808H13.8265C13.7253 5.02808 13.6282 5.06829 13.5566 5.13987C13.485 5.21146 13.4448 5.30855 13.4448 5.40978C13.4448 5.51101 13.485 5.6081 13.5566 5.67968C13.6282 5.75127 13.7253 5.79148 13.8265 5.79148H17.7453C17.8465 5.79148 17.9436 5.75127 18.0152 5.67968C18.0868 5.6081 18.127 5.51101 18.127 5.40978C18.127 5.30855 18.0868 5.21146 18.0152 5.13987C17.9436 5.06829 17.8465 5.02808 17.7453 5.02808Z" fill="#0071BD"/>
</g>
<defs>
<clipPath id="clip0_490_993">
<rect width="24" height="24" fill="white"/>
</clipPath>
</defs>
</svg>
