<svg width="40" height="40" viewBox="0 0 40 40" fill="none" xmlns="http://www.w3.org/2000/svg">
<path d="M34.516 20.8002H13.84C13.4 20.8002 13.04 20.4402 13.04 20.0002C13.04 19.5602 13.4 19.2002 13.84 19.2002H34.516C34.956 19.2002 35.316 19.5602 35.316 20.0002C35.316 20.4402 34.956 20.8002 34.516 20.8002Z" fill="black"/>
<path fill-rule="evenodd" clip-rule="evenodd" d="M6.58 19.2002C7.02 19.2002 7.38 19.5602 7.38 20.0002C7.38 20.4402 7.02 20.8002 6.58 20.8002C6.14 20.8002 5.78 20.4402 5.78 20.0002C5.78 19.5602 6.136 19.2002 6.58 19.2002Z" fill="black"/>
<path d="M10.208 20.8002C10.6498 20.8002 11.008 20.442 11.008 20.0002C11.008 19.5584 10.6498 19.2002 10.208 19.2002C9.76617 19.2002 9.408 19.5584 9.408 20.0002C9.408 20.442 9.76617 20.8002 10.208 20.8002Z" fill="black"/>
<path d="M29.2 27.048C29.016 27.048 28.832 26.984 28.684 26.856C28.348 26.568 28.308 26.064 28.592 25.728L33.464 20L28.592 14.268C28.304 13.932 28.348 13.428 28.684 13.14C29.02 12.852 29.524 12.896 29.812 13.232L35.124 19.48C35.376 19.78 35.376 20.216 35.124 20.516L29.812 26.768C29.652 26.956 29.428 27.048 29.2 27.048Z" fill="black"/>
</svg>
