<svg width="117" height="103" viewBox="0 0 117 103" fill="none" xmlns="http://www.w3.org/2000/svg">
<path d="M92.1663 75.3211C98.7379 73.5056 101.435 69.5905 105.761 64.2382C111.015 57.7385 116.831 63.6253 115.219 68.3758C111.006 80.7883 97.8057 85.4769 89.9497 86.4039L92.1663 75.3211Z" fill="#BBDDF3"/>
<path d="M25.0979 1.84366C19.8477 1.77165 16.9627 8.9691 18.3093 26.0771C11.6094 46.7894 18.2049 50.2882 18.2049 57.633C18.2049 64.9799 10.0015 78.1364 20.5037 89.1889C28.3698 97.4672 49.7419 97.8615 55.5077 97.8615C61.2735 97.8615 82.6456 97.4672 90.5118 89.1889C101.014 78.1364 92.8106 64.9799 92.8106 57.633C92.8106 50.2882 99.406 46.7894 92.7061 26.0771C94.8608 -1.29573 86.1821 -3.29853 74.316 9.25428C68.0466 6.03223 62.0069 4.09509 55.5078 4.09509C49.0087 4.09509 42.969 6.03223 36.6996 9.25428C32.2498 4.54696 28.248 1.8869 25.0979 1.84366Z" fill="#E6F1F8"/>
<path d="M22.6924 25.7214C22.3957 25.6272 22.0833 25.5924 21.7732 25.619C21.463 25.6456 21.1611 25.7331 20.8848 25.8764C20.6084 26.0197 20.363 26.216 20.1626 26.4542C19.9621 26.6924 19.8106 26.9677 19.7166 27.2645C18.4334 31.3109 17.3087 35.5946 17.0423 39.9492C17.0039 40.5764 17.2163 41.1931 17.6327 41.6637C18.0491 42.1344 18.6353 42.4204 19.2625 42.4588C19.8897 42.4971 20.5065 42.2847 20.9771 41.8683C21.4477 41.452 21.7337 40.8657 21.7721 40.2385C21.9998 36.5171 23.0046 32.5789 24.2355 28.6971C24.3297 28.4004 24.3645 28.0881 24.3379 27.7779C24.3113 27.4677 24.2238 27.1659 24.0805 26.8895C23.9372 26.6132 23.7409 26.3678 23.5027 26.1673C23.2645 25.9669 22.9892 25.8154 22.6924 25.7214Z" fill="white"/>
<path d="M89.0894 62.7345C88.49 62.9227 87.9898 63.3413 87.6989 63.8982C87.408 64.4551 87.3502 65.1048 87.5382 65.7043C90.1645 74.082 89.8408 79.1927 87.7572 82.5602C85.6737 85.9277 81.3628 88.1784 74.6526 89.8097C74.3502 89.8833 74.0653 90.0157 73.8141 90.1995C73.5628 90.3832 73.3503 90.6146 73.1885 90.8805C73.0267 91.1464 72.9189 91.4415 72.8712 91.7491C72.8236 92.0566 72.8369 92.3706 72.9106 92.673C73.0592 93.2833 73.4441 93.8096 73.9806 94.1363C74.5171 94.4629 75.1614 94.5632 75.7718 94.415C82.9869 92.6609 88.6966 90.05 91.7879 85.0537C94.8792 80.0575 94.8858 73.3026 92.0591 64.2857C91.8709 63.6863 91.4523 63.1861 90.8954 62.8952C90.3385 62.6043 89.6889 62.5465 89.0894 62.7345Z" fill="#BBDDF3"/>
<path d="M55.5073 87.935C55.5073 110.128 70.2748 101.486 77.6591 84.4868L55.5073 87.935Z" fill="#E6F1F8"/>
<path d="M55.5075 87.935C55.5075 110.128 40.74 101.486 33.3557 84.4868L55.5075 87.935Z" fill="#E6F1F8"/>
<path d="M16.7629 25.8864C14.7557 32.1656 13.9575 36.9585 13.814 40.7761C9.51121 40.4531 5.27645 40.5177 1.29154 41.1669C0.450092 41.3062 -0.118759 42.1017 0.0214915 42.943C0.160816 43.7845 0.956343 44.3533 1.79765 44.2131C5.53916 43.5922 9.75532 43.5368 13.8437 43.8957C13.9258 45.2664 14.0928 46.4931 14.3094 47.6086C9.893 48.0109 5.39717 48.9065 1.40797 50.3597C0.607482 50.6512 0.194611 51.5362 0.485605 52.3368C0.777268 53.1382 1.66372 53.5511 2.46484 53.2587C6.26569 51.8741 10.7156 51.0238 15.0622 50.6606C15.8313 53.2955 16.6624 55.355 16.6624 57.6334C16.6624 63.8316 8.18562 78.4651 19.3854 90.2518C23.4935 94.9206 33.7116 97.8711 40.4962 98.2942C42.506 100.269 44.6116 101.684 46.7194 102.374C49.4666 103.274 52.4936 102.563 54.3286 100.061C54.7781 99.4483 55.171 98.7504 55.5077 97.963C55.8442 98.7504 56.2362 99.4483 56.6858 100.061C58.5208 102.563 61.5477 103.274 64.2949 102.374C66.3418 101.704 68.387 100.351 70.3443 98.4643C79.8705 97.1215 86.9342 94.9694 91.6311 90.2518C92.5655 89.2684 93.3599 88.265 94.0367 87.2486C97.3981 86.4727 101.165 85.1327 104.736 83.0243C109.777 80.0473 114.434 75.4856 116.679 68.8709C117.729 65.7772 116.44 62.4577 113.91 60.7976C110.532 58.5933 106.758 60.3793 104.561 63.267C101.756 66.7378 99.7952 69.4155 97.1222 71.335C96.3476 65.641 94.3535 60.6418 94.3535 57.6329C94.3535 55.3546 95.1844 53.2955 95.9532 50.6606C100.3 51.0239 104.749 51.8742 108.549 53.2587C109.351 53.5511 110.237 53.1382 110.529 52.3368C110.82 51.5362 110.407 50.6512 109.606 50.3597C105.617 48.9064 101.122 48.0108 96.7054 47.6086C96.922 46.4931 97.0891 45.2665 97.1711 43.8957C101.259 43.5369 105.475 43.5923 109.217 44.2131C110.058 44.3533 110.854 43.7845 110.993 42.943C111.133 42.1017 110.564 41.3062 109.723 41.1669C105.459 40.5019 101.202 40.4513 97.2004 40.7761C97.0568 36.9609 96.2594 32.1718 94.2552 25.8986C94.6905 19.1495 95.5702 5.43692 89.6503 1.42738C84.1803 -2.05884 77.7267 3.68786 74.0237 7.4188C67.9609 4.42419 61.9601 2.5523 55.5082 2.5523C49.0647 2.5523 43.0694 4.42091 37.0146 7.4087C32.7698 3.07764 28.8795 0.351417 25.1195 0.299805C14.8179 0.496616 16.3012 19.5027 16.7629 25.8864ZM87.8879 3.96111C92.265 7.24372 91.5922 20.331 91.167 25.9565C90.851 26.4712 93.6103 31.7018 94.1648 41.1052C91.1058 41.5148 88.1812 42.1433 85.5892 42.9313C84.7734 43.1787 84.3128 44.0407 84.5605 44.8563C84.8088 45.6712 85.6705 46.1307 86.4855 45.8829C88.7515 45.194 91.3424 44.6343 94.0649 44.2503C93.9576 45.4033 93.7803 46.4432 93.5625 47.4034C90.8902 47.3067 88.0157 47.3906 85.5594 47.6569C84.7119 47.7504 84.1008 48.5134 84.1947 49.3608C84.2881 50.2083 85.0511 50.8194 85.8986 50.7255C87.9824 50.4946 90.2979 50.4089 92.7071 50.4772C91.986 52.7907 91.2674 54.9035 91.2674 57.6334C91.2674 66.129 99.1974 77.8081 89.3929 88.1263C86.1897 91.4974 79.9129 93.654 73.5192 94.8376C75.5846 92.0933 77.4781 88.7785 79.0752 85.1019C79.4154 84.3196 79.0562 83.4097 78.2735 83.0706C77.4917 82.7318 76.5834 83.0906 76.2443 83.8723C72.6638 92.1147 67.0697 98.2192 63.3343 99.4425C61.4666 100.054 60.34 99.8249 59.1754 98.2368C58.0107 96.6487 57.0515 93.3127 57.0515 87.9355C57.0515 85.8433 53.9649 85.9381 53.9649 87.9355C53.9649 93.3127 53.0057 96.6487 51.8411 98.2368C50.6764 99.8249 49.5478 100.054 47.6801 99.4425C43.9447 98.2192 38.3505 92.1147 34.7701 83.8723C34.431 83.0907 33.5226 82.7318 32.7409 83.0706C31.9589 83.4105 31.6009 84.3202 31.9413 85.1019C33.5384 88.7785 35.4317 92.0933 37.4968 94.8376C31.1026 93.654 24.8248 91.4971 21.6214 88.1258C11.8169 77.8075 19.749 66.1285 19.749 57.6329C19.749 54.903 19.0303 52.7906 18.3089 50.4772C20.7175 50.409 23.0324 50.4947 25.1158 50.7255C25.9632 50.8194 26.7262 50.2083 26.8196 49.3608C26.9136 48.5135 26.3028 47.7506 25.4555 47.6569C22.5722 47.3828 20.0903 47.302 17.4529 47.4034C17.235 46.4431 17.0574 45.4035 16.95 44.2503C19.6723 44.6343 22.263 45.194 24.5289 45.8829C25.3439 46.1307 26.2056 45.6712 26.4539 44.8563C26.7017 44.0413 26.2422 43.1796 25.4273 42.9313C22.8351 42.1432 19.9098 41.5142 16.8501 41.1047C17.4683 31.703 20.0658 26.6893 19.8473 25.9565C19.434 20.6164 18.4549 3.18978 25.0775 3.38642C27.377 3.41801 31.2462 5.73144 35.5781 10.314C36.05 10.8124 36.7939 10.9394 37.4042 10.6255C43.5389 7.47275 49.3158 5.63838 55.5082 5.63838C61.7006 5.63838 67.4754 7.47275 73.61 10.6255C74.2204 10.9394 74.9643 10.8124 75.4361 10.314C77.2509 8.33826 84.1864 1.36879 87.8879 3.96111ZM112.218 63.3776C113.507 64.2236 114.32 66.2236 113.757 67.8805C111.79 73.6782 107.743 77.6662 103.167 80.3683C100.804 81.7636 98.3638 82.7349 96.0303 83.423C97.1642 80.4995 97.4987 77.537 97.4082 74.6778C101.28 72.408 103.829 69.0845 106.962 65.208C108.31 63.5036 110.328 62.1614 112.218 63.3776Z" fill="#353535"/>
<path d="M55.2845 41.5391C52.0221 41.5391 48.7037 42.2407 46.4938 44.4505C46.1081 44.8364 45.8914 45.3596 45.8914 45.9053C45.8914 46.4509 46.1081 46.9741 46.4938 47.36C46.8797 47.7457 47.4029 47.9625 47.9486 47.9625C48.4942 47.9625 49.0174 47.7457 49.4033 47.36C50.2717 46.4915 52.7505 45.6541 55.2845 45.6541C57.8184 45.6541 60.2972 46.4915 61.1657 47.36C61.5515 47.7457 62.0748 47.9625 62.6204 47.9625C63.166 47.9625 63.6893 47.7457 64.0751 47.36C64.4609 46.9741 64.6776 46.4509 64.6776 45.9053C64.6776 45.3596 64.4609 44.8364 64.0751 44.4505C61.8653 42.2407 58.5469 41.5391 55.2845 41.5391Z" fill="#353535"/>
<path d="M40.1807 29.2657L34.8846 32.3236C33.8999 32.8916 33.5624 34.1504 34.1308 35.1349C34.7899 36.2765 36.1791 36.4057 37.0483 35.8249V39.3039C37.0481 40.4403 37.9693 41.3617 39.1057 41.3618C40.2424 41.362 41.1639 40.4405 41.1636 39.3039V33.4507L42.2386 32.8303C43.2231 32.2622 43.5652 30.985 42.9919 30.019C42.39 29.0048 41.1523 28.7048 40.1807 29.2657Z" fill="#353535"/>
<path d="M70.8347 29.2652L76.1307 32.3231C77.1154 32.8911 77.4529 34.1499 76.8845 35.1344C76.2254 36.276 74.8362 36.4052 73.967 35.8244V39.3034C73.9672 40.4398 73.046 41.3612 71.9096 41.3613C70.7729 41.3615 69.8515 40.44 69.8517 39.3034V33.4502L68.7767 32.8298C67.7922 32.2617 67.4502 30.9845 68.0234 30.0186C68.6253 29.0043 69.863 28.7043 70.8347 29.2652Z" fill="#353535"/>
</svg>
