<svg width="197" height="197" viewBox="0 0 197 197" fill="none" xmlns="http://www.w3.org/2000/svg">
<g clip-path="url(#clip0_466_1165)">
<path d="M197 98.5C197 79.531 196.038 62.3705 193.191 52.4435C189.843 40.8236 186.188 30.2041 175.992 20.8158C163.833 9.6191 152.79 5.84839 136.784 2.73179C124.895 0.423198 111.043 -0.0769971 102.386 -0.0385206C99.8082 -0.0385206 97.2303 -0.0385206 94.6523 -0.0385206C85.9951 -0.0769971 72.1436 0.423198 60.2543 2.73179C44.2481 5.84839 33.2053 9.6191 21.0467 20.8158C10.8504 30.2041 7.19512 40.8236 3.84766 52.4435C0.961914 62.3705 0 79.531 0 98.4615V98.5V98.5384C0 117.469 0.961914 134.629 3.80918 144.556C7.15664 156.176 10.8119 166.796 21.0082 176.184C33.1668 187.381 44.2096 191.152 60.2158 194.268C74.0674 196.961 90.5353 197.192 98.3846 196.961L98.4615 197.038L98.5385 196.961C106.426 197.192 122.894 196.923 136.707 194.268C152.713 191.152 163.756 187.381 175.915 176.184C186.111 166.796 189.766 156.176 193.114 144.556C196.038 134.629 197 117.469 197 98.5Z" fill="url(#paint0_linear_466_1165)"/>
<path d="M70.9891 94.6136C69.2192 92.8437 66.1026 92.8437 64.3712 94.6136C62.6397 96.3835 62.6012 99.5001 64.3712 101.232L86.0335 122.894C86.9954 123.856 88.1881 124.241 89.3424 124.241H89.5348C90.8815 124.241 92.0743 123.663 92.8438 122.471L147.057 57.5222C148.635 55.5599 148.404 52.6356 146.48 50.9042C144.518 49.3267 141.594 49.5575 139.862 51.4814L88.9577 112.544L70.9891 94.6136Z" fill="white"/>
<path d="M154.868 63.1783C153.521 61.0236 150.559 60.2541 148.442 61.6007C146.288 62.9474 145.518 65.9101 146.865 68.0263C161.101 90.6505 157.792 119.893 138.862 138.823C116.622 161.063 80.339 161.063 58.0995 138.823C35.8601 116.584 35.8601 80.3003 58.0995 58.0609C77.03 39.1304 106.08 35.8214 128.704 49.8654C130.859 51.2121 133.783 50.6349 135.13 48.2879C136.476 46.3255 135.707 43.4013 133.552 42.0547C107.234 25.6636 73.4901 29.3574 51.4431 51.4045C25.5099 77.3377 25.5099 119.469 51.4431 145.403C64.3327 158.292 81.4933 164.91 98.4614 164.91C115.43 164.91 132.59 158.485 145.48 145.403C167.565 123.471 171.451 89.5347 154.868 63.1783Z" fill="white"/>
</g>
<defs>
<linearGradient id="paint0_linear_466_1165" x1="0" y1="98.4988" x2="197" y2="98.4988" gradientUnits="userSpaceOnUse">
<stop stop-color="#00C6FF"/>
<stop offset="1" stop-color="#0071BD"/>
</linearGradient>
<clipPath id="clip0_466_1165">
<rect width="197" height="197" fill="white"/>
</clipPath>
</defs>
</svg>
