<svg width="145" height="39" viewBox="0 0 145 39" fill="none" xmlns="http://www.w3.org/2000/svg">
<path fill-rule="evenodd" clip-rule="evenodd" d="M144.788 37.1822C143.051 38.8865 140.897 38.2577 138.931 38.0186C137.578 37.8542 137.599 36.453 137.598 35.3017C137.595 30.7526 137.642 26.2025 137.533 21.6565C137.441 17.8779 135.765 15.4934 133.079 14.9399C129.766 14.2581 127.201 15.8083 126.196 19.1931C125.196 22.5548 125.793 26.0175 125.675 29.4343C125.601 31.5777 125.649 33.7252 125.663 35.8706C125.672 37.4765 124.882 38.132 123.286 38.2206C118.769 38.4716 118.432 38.198 118.432 33.6973C118.431 23.6561 118.414 13.6144 118.451 3.57318C118.457 2.00752 117.731 -0.0441137 120.688 0.000722352C123.844 0.0481352 125.49 1.01752 125.616 3.59946C125.748 6.33755 125.646 9.08698 125.646 11.822C126.52 12.1894 126.747 11.4138 127.088 11.0634C132.132 5.87425 143.482 7.5909 144.405 15.7758C144.417 15.8809 144.655 15.9608 144.788 16.0526V37.1822Z" fill="white"/>
<path fill-rule="evenodd" clip-rule="evenodd" d="M25.653 22.1976C29.2583 23.7025 29.4403 26.8683 29.7086 29.9883C29.8115 31.1844 29.9149 32.3826 29.9661 33.5819C30.1641 38.2062 30.1005 38.1572 25.5645 38.2438C23.1841 38.2892 22.2855 37.2718 22.2483 35.0671C22.2147 33.0949 22.1904 31.1149 21.9949 29.1544C21.6925 26.1257 20.9593 25.5284 17.885 25.447C14.2756 25.3516 13.0274 23.5499 14.1292 20.0821C14.5822 18.6561 15.7414 18.6097 16.852 18.7571C21.2659 19.3436 23.9209 13.7143 22.5373 9.90741C21.8078 7.89906 20.208 6.7462 17.9775 6.72147C15.1369 6.69055 12.2932 6.7694 9.4547 6.67612C7.89531 6.62458 7.57217 7.36463 7.58044 8.70662C7.60681 13.1686 7.58871 17.6316 7.53959 22.0935C7.50805 24.9764 6.93569 25.4331 3.66647 25.416C0.624735 25.4006 0.0373805 24.9069 0.0234205 22.1131C-0.00501657 16.3633 -0.011221 10.6129 0.0254886 4.8636C0.0472042 1.44318 1.47578 0.0584146 4.91718 0.0424386C9.56638 0.0213089 14.2156 0.0455307 18.8648 0.0347082C23.606 0.0233704 28.022 0.930399 29.8322 5.94276C31.7633 11.2911 31.0746 16.4169 27.1198 20.8196C26.7325 21.2509 26.2734 21.6189 25.653 22.1976Z" fill="white"/>
<path fill-rule="evenodd" clip-rule="evenodd" d="M51.5647 20.025C50.9939 15.8687 49.237 14.0041 46.2185 14.1654C43.2791 14.3231 41.5036 16.4376 41.3687 20.025H51.5647ZM40.9334 25.4172C41.2203 28.2738 41.6991 30.695 44.2527 31.7628C46.7929 32.8255 49.1439 32.1107 51.1092 30.1976C52.9017 28.4521 55.1384 28.9592 57.2267 29.1443C58.3327 29.2427 58.6548 30.2471 58.22 31.333C57.5768 32.9399 56.7423 34.4241 55.4967 35.6537C49.4805 41.5932 37.6734 39.1726 34.7987 31.2737C32.9291 26.1371 32.9446 20.8151 34.6875 15.6264C36.4134 10.4899 40.726 7.89402 46.8327 7.99658C52.7833 8.09656 56.7159 10.8316 58.3999 16.0485C58.5054 16.3742 58.5778 16.7102 58.6667 17.0416C60.4479 23.682 59.1232 25.4167 52.2746 25.4172H40.9334Z" fill="white"/>
<path fill-rule="evenodd" clip-rule="evenodd" d="M78.9736 23.5026C76.5203 24.2081 74.1026 24.8049 71.7573 25.6099C70.0728 26.1881 69.1034 27.4425 69.2001 29.3519C69.2771 30.882 69.9224 32.0075 71.4238 32.4724C74.2241 33.3392 77.5606 31.656 78.5993 28.8932C79.2502 27.1621 79.2011 25.3826 78.9736 23.5026ZM86.2468 21.9323C86.1201 24.3261 86.1284 26.7364 85.8368 29.1107C85.3632 32.964 83.3452 35.8253 79.6959 37.3476C75.9448 38.9123 72.0458 39.3477 68.106 38.1923C64.4428 37.1178 62.2919 34.2302 62.0644 30.4089C61.7956 25.8969 63.4827 22.8501 67.2033 21.236C69.5139 20.2326 72.0003 19.994 74.4604 19.592C76.3243 19.2875 78.6856 19.2638 78.8769 16.5942C78.9917 14.9992 76.708 13.9736 73.8296 14.2158C72.99 14.2869 71.8742 14.3174 71.3923 14.8358C69.486 16.8869 67.0983 16.1453 64.8642 16.2077C63.3787 16.2489 62.9134 15.4831 63.4403 14.0226C64.5684 10.8985 66.8744 9.13956 69.9922 8.45053C73.3105 7.71821 76.6604 7.82643 79.9436 8.75665C84.0406 9.91775 85.812 12.0565 86.0839 16.2716C86.2049 18.149 86.1041 20.0409 86.1041 21.9261C86.1522 21.9281 86.1997 21.9302 86.2468 21.9323Z" fill="white"/>
<path fill-rule="evenodd" clip-rule="evenodd" d="M89.3513 22.6314C89.3813 22.0568 89.3787 20.8503 89.5147 19.6599C90.6268 9.97115 100.455 4.86138 109.173 9.43569C111.571 10.6932 113.116 12.6891 114.037 15.201C114.608 16.7579 114.354 17.7242 112.423 17.6659C109.769 17.5861 107.23 18.0731 104.963 15.5566C102.972 13.3467 98.9237 14.6557 97.7051 17.566C96.1224 21.3477 96.155 25.2685 97.6193 29.0935C98.5349 31.4863 100.495 32.4134 102.996 32.1444C105.31 31.895 106.363 30.3819 106.818 28.2452C107.349 25.7534 111.932 24.1806 114.011 25.7354C114.725 26.2688 114.738 27.0228 114.722 27.8205C114.603 33.7296 110.068 38.4519 104.177 38.7806C94.272 39.3336 89.3653 34.196 89.3513 22.6314Z" fill="white"/>
</svg>
