<svg width="24" height="24" viewBox="0 0 24 24" fill="none" xmlns="http://www.w3.org/2000/svg">
<path d="M21.0001 12C21.081 11.6302 21.2311 11.279 21.4426 10.965C21.6828 10.6546 21.8555 10.2975 21.9498 9.91653C22.0441 9.53555 22.0578 9.13908 21.9901 8.7525C21.8147 8.39104 21.5651 8.07063 21.2575 7.81216C20.95 7.5537 20.5913 7.36299 20.2051 7.2525C19.8715 7.13808 19.5596 6.96819 19.2826 6.75C19.1407 6.41218 19.0619 6.05122 19.0501 5.685C19.0627 5.28589 18.9911 4.88859 18.8399 4.51901C18.6887 4.14943 18.4613 3.81584 18.1726 3.54C17.8233 3.35226 17.4382 3.24051 17.0427 3.21207C16.6472 3.18363 16.2501 3.23916 15.8776 3.375C15.5224 3.47863 15.1504 3.51176 14.7826 3.4725C14.4907 3.28954 14.2362 3.05286 14.0326 2.775C13.805 2.4292 13.5057 2.13638 13.155 1.9164C12.8043 1.69641 12.4105 1.5544 12.0001 1.5C11.5981 1.55406 11.212 1.6922 10.867 1.90542C10.522 2.11864 10.2257 2.40216 9.99758 2.7375C9.79396 3.01535 9.53945 3.25204 9.24758 3.435C8.87971 3.47426 8.50772 3.44113 8.15258 3.3375C7.78003 3.20166 7.38296 3.14613 6.98743 3.17457C6.59191 3.20301 6.20687 3.31476 5.85758 3.5025C5.56342 3.77568 5.33047 4.10807 5.17405 4.47779C5.01763 4.8475 4.9413 5.24615 4.95008 5.6475C4.94291 6.02639 4.86402 6.40048 4.71758 6.75C4.44326 6.98148 4.13122 7.16414 3.79508 7.29C3.40882 7.4005 3.0502 7.5912 2.74263 7.84966C2.43506 8.10813 2.18544 8.42854 2.01008 8.79C1.94235 9.17658 1.95607 9.57305 2.05034 9.95403C2.14462 10.335 2.31738 10.6921 2.55758 11.0025C2.76482 11.3052 2.9148 11.6432 3.00008 12C2.9192 12.3698 2.76906 12.721 2.55758 13.035C2.31738 13.3454 2.14462 13.7025 2.05034 14.0835C1.95607 14.4645 1.94235 14.8609 2.01008 15.2475C2.18544 15.609 2.43506 15.9294 2.74263 16.1878C3.0502 16.4463 3.40882 16.637 3.79508 16.7475C4.13122 16.8734 4.44326 17.056 4.71758 17.2875C4.85947 17.6253 4.93827 17.9863 4.95008 18.3525C4.93747 18.7516 5.0091 19.1489 5.16029 19.5185C5.31149 19.8881 5.53885 20.2217 5.82758 20.4975C6.17687 20.6852 6.56191 20.797 6.95743 20.8254C7.35296 20.8539 7.75003 20.7983 8.12258 20.6625C8.47772 20.5589 8.84971 20.5257 9.21758 20.565C9.50945 20.748 9.76396 20.9846 9.96758 21.2625C10.199 21.6013 10.5 21.887 10.8504 22.1004C11.2009 22.3137 11.5928 22.45 12.0001 22.5C12.4021 22.4459 12.7881 22.3078 13.1332 22.0946C13.4782 21.8814 13.7744 21.5978 14.0026 21.2625C14.2062 20.9846 14.4607 20.748 14.7526 20.565C15.1204 20.5257 15.4924 20.5589 15.8476 20.6625C16.2201 20.7983 16.6172 20.8539 17.0127 20.8254C17.4082 20.797 17.7933 20.6852 18.1426 20.4975C18.4313 20.2217 18.6587 19.8881 18.8099 19.5185C18.9611 19.1489 19.0327 18.7516 19.0201 18.3525C19.0319 17.9863 19.1107 17.6253 19.2526 17.2875C19.5269 17.056 19.8389 16.8734 20.1751 16.7475C20.5613 16.637 20.92 16.4463 21.2275 16.1878C21.5351 15.9294 21.7847 15.609 21.9601 15.2475C22.0278 14.8609 22.0141 14.4645 21.9198 14.0835C21.8255 13.7025 21.6528 13.3454 21.4126 13.035C21.2117 12.7188 21.0717 12.3677 21.0001 12ZM20.1376 13.77C20.3026 14.07 20.6176 14.6175 20.5651 14.7825C20.5126 14.9475 19.9501 15.2175 19.5901 15.3825C19.0116 15.5934 18.4957 15.9468 18.0901 16.41C17.7685 16.9454 17.5927 17.5556 17.5801 18.18C17.5351 18.555 17.4676 19.17 17.3101 19.2825C17.1526 19.395 16.5601 19.2825 16.2001 19.1925C15.595 19.0165 14.9553 18.9959 14.3401 19.1325C13.7691 19.3736 13.2704 19.7586 12.8926 20.25C12.6226 20.55 12.2101 21 12.0001 21C11.7901 21 11.3776 20.55 11.1076 20.25C10.736 19.7617 10.2454 19.3769 9.68258 19.1325C9.46357 19.0671 9.23614 19.0343 9.00758 19.035C8.6085 19.05 8.21173 19.1028 7.82258 19.1925C7.46258 19.2675 6.85508 19.3875 6.71258 19.2825C6.57008 19.1775 6.48758 18.5325 6.44258 18.18C6.42999 17.5556 6.25416 16.9454 5.93258 16.41C5.52696 15.9468 5.01104 15.5934 4.43258 15.3825C4.07258 15.2175 3.52508 14.97 3.45758 14.7825C3.39008 14.595 3.72008 14.07 3.88508 13.77C4.23656 13.2415 4.44816 12.6325 4.50008 12C4.44143 11.3654 4.22203 10.7562 3.86258 10.23C3.69758 9.93 3.38258 9.3825 3.43508 9.2175C3.48758 9.0525 4.05008 8.7825 4.41008 8.6175C4.98854 8.40662 5.50446 8.05322 5.91008 7.59C6.23166 7.05463 6.40749 6.4444 6.42008 5.82C6.46508 5.445 6.53258 4.83 6.69008 4.7175C6.84758 4.605 7.44008 4.7175 7.80008 4.8075C8.40519 4.98347 9.04489 5.0041 9.66008 4.8675C10.2311 4.62639 10.7298 4.24137 11.1076 3.75C11.3776 3.45 11.7901 3 12.0001 3C12.2101 3 12.6226 3.45 12.8926 3.75C13.2641 4.23831 13.7548 4.62308 14.3176 4.8675C14.9328 5.0041 15.5725 4.98347 16.1776 4.8075C16.5362 4.6951 16.9155 4.66435 17.2876 4.7175C17.4451 4.83 17.5126 5.4675 17.5576 5.82C17.5702 6.4444 17.746 7.05463 18.0676 7.59C18.4732 8.05322 18.9891 8.40662 19.5676 8.6175C19.9276 8.7825 20.4751 9.03 20.5426 9.2175C20.6101 9.405 20.2801 9.9675 20.1151 10.23C19.7636 10.7585 19.552 11.3675 19.5001 12C19.5587 12.6346 19.7781 13.2438 20.1376 13.77Z" fill="#1BC98E"/>
<path d="M14.8426 9.2175L10.8751 13.1925L9.53264 11.8425C9.46271 11.7726 9.37969 11.7171 9.28833 11.6793C9.19696 11.6414 9.09903 11.6219 9.00014 11.6219C8.90124 11.6219 8.80332 11.6414 8.71195 11.6793C8.62058 11.7171 8.53757 11.7726 8.46764 11.8425C8.39771 11.9124 8.34224 11.9954 8.30439 12.0868C8.26655 12.1782 8.24707 12.2761 8.24707 12.375C8.24707 12.4739 8.26655 12.5718 8.30439 12.6632C8.34224 12.7546 8.39771 12.8376 8.46764 12.9075L10.3426 14.7825C10.4124 14.8528 10.4953 14.9086 10.5867 14.9467C10.6781 14.9847 10.7761 15.0043 10.8751 15.0043C10.9741 15.0043 11.0722 14.9847 11.1636 14.9467C11.255 14.9086 11.3379 14.8528 11.4076 14.7825L15.9076 10.2825C15.9776 10.2126 16.033 10.1296 16.0709 10.0382C16.1087 9.94682 16.1282 9.84889 16.1282 9.75C16.1282 9.65111 16.1087 9.55318 16.0709 9.46181C16.033 9.37045 15.9776 9.28743 15.9076 9.2175C15.8377 9.14757 15.7547 9.0921 15.6633 9.05425C15.572 9.01641 15.474 8.99693 15.3751 8.99693C15.2762 8.99693 15.1783 9.01641 15.087 9.05425C14.9956 9.0921 14.9126 9.14757 14.8426 9.2175Z" fill="#1BC98E"/>
</svg>
